<svg width="59" height="85" viewBox="0 0 59 85" fill="none" xmlns="http://www.w3.org/2000/svg">
<g clip-path="url(#clip0_448_11510)">
<path d="M48.8536 37.7478C48.8736 37.9913 48.8902 38.1681 48.9168 38.3983C48.9667 38.8187 49.0331 39.2457 49.1196 39.6727C49.3889 39.7261 49.6249 39.7694 49.841 39.8095C50.5957 39.9462 51.091 40.0397 51.7326 40.3132C51.8889 40.3799 52.0452 40.4567 52.1981 40.5367C52.1183 40.2665 52.0551 39.9963 52.0053 39.7194C51.9022 39.1356 51.9088 38.8453 51.9288 37.9813C51.9354 37.7611 51.9388 37.5042 51.9454 37.1973C51.603 36.9905 51.2439 36.837 50.8816 36.747C50.6356 36.6836 50.4461 36.6636 50.2067 36.6369C49.9939 36.6135 49.7546 36.5868 49.4188 36.5268C49.1861 36.4867 48.9567 36.4367 48.7273 36.3766C48.7472 36.5768 48.7672 36.7803 48.7871 36.9805C48.8171 37.3208 48.837 37.5576 48.8536 37.7478Z" fill="#A28C41"/>
<path d="M51.4666 40.927C50.8948 40.6801 50.4527 40.6001 49.7179 40.4666C49.3921 40.4066 49.0198 40.3399 48.561 40.2431C47.6734 40.0563 46.7857 39.8328 45.9114 39.5726C46.4433 40.3165 46.9619 41.0638 47.4639 41.8111C47.67 42.1147 47.8496 42.3882 48.0091 42.6318C48.8236 43.8628 49.1262 44.3231 49.7645 44.7268C50.5491 45.2239 51.5331 45.4274 52.6834 45.334C52.7798 44.9136 52.9394 44.4766 53.192 44.0396C53.4414 43.6126 53.7306 43.2656 54.0365 42.982C53.2885 42.0313 52.4241 41.3374 51.4666 40.927ZM48.3416 41.5809C48.0989 41.5809 47.9061 41.3841 47.9061 41.1439C47.9061 40.9003 48.1022 40.7068 48.3416 40.7068C48.5843 40.7068 48.7771 40.9037 48.7771 41.1439C48.7804 41.3841 48.5843 41.5809 48.3416 41.5809ZM50.0936 42.5584C49.8509 42.5584 49.6581 42.3615 49.6581 42.1213C49.6581 41.8778 49.8542 41.6843 50.0936 41.6843C50.3363 41.6843 50.5291 41.8811 50.5291 42.1213C50.5291 42.3615 50.333 42.5584 50.0936 42.5584ZM51.6794 43.5125C51.4367 43.5125 51.2439 43.3156 51.2439 43.0755C51.2439 42.8319 51.44 42.6384 51.6794 42.6384C51.9221 42.6384 52.1149 42.8353 52.1149 43.0755C52.1149 43.319 51.9188 43.5125 51.6794 43.5125Z" fill="#A28C41"/>
<path d="M47.4573 43.0021C47.3875 42.8986 47.3143 42.7852 47.2379 42.6685C46.8156 42.7385 46.42 42.8653 46.0676 43.0488C45.8416 43.1655 45.6853 43.2756 45.4892 43.4157C45.3163 43.5392 45.1168 43.6793 44.8276 43.8561C44.6248 43.9795 44.4187 44.0963 44.2092 44.2031C44.3588 44.3398 44.5051 44.48 44.6547 44.6167C44.9007 44.8469 45.0703 45.0104 45.2099 45.1438C45.3861 45.314 45.5158 45.4374 45.6853 45.5909C46.0111 45.8844 46.3569 46.1714 46.7159 46.4416C46.7325 46.4349 46.7492 46.4282 46.7658 46.4249C47.1847 46.2714 47.5238 46.1347 47.823 46.0146C48.4912 45.7443 48.9799 45.5508 49.6647 45.4408C49.5783 45.394 49.4919 45.344 49.4121 45.294C48.6541 44.8136 48.2784 44.2431 47.4573 43.0021Z" fill="#A28C41"/>
<path d="M0.638305 40.8303C0.60506 40.7469 0.541894 40.6868 0.465431 40.6535C0.462106 40.6535 0.462106 40.6535 0.458782 40.6501C0.442159 40.6435 0.425537 40.6368 0.40559 40.6335C0.398941 40.6335 0.392292 40.6335 0.385643 40.6301C0.372345 40.6268 0.355722 40.6235 0.342424 40.6235C0.332451 40.6235 0.319153 40.6235 0.309179 40.6268C0.299206 40.6268 0.289232 40.6268 0.279258 40.6301C0.259311 40.6335 0.23604 40.6401 0.216093 40.6468C0.196146 40.6535 0.179523 40.6635 0.159576 40.6735C0.152927 40.6768 0.149603 40.6802 0.142954 40.6868C0.13298 40.6935 0.123007 40.7002 0.113033 40.7102C0.106384 40.7169 0.0997352 40.7202 0.0930862 40.7269C0.0864372 40.7335 0.0797881 40.7402 0.0731391 40.7502C0.0664901 40.7569 0.0598411 40.7669 0.0531921 40.7736C0.0498676 40.7769 0.0498676 40.7803 0.0465431 40.7869C0.0232715 40.827 0.00664901 40.8703 0 40.917V40.9204C0 40.9337 0 40.9504 0 40.9671C0 40.9804 0 40.9971 0.00332451 41.0104C0.00332451 41.0104 0.00332451 41.0104 0.00332451 41.0138C0.00997352 41.0605 0.0232715 41.1039 0.0465431 41.1439C0.508649 42.3949 1.05387 43.6126 1.67223 44.7902C1.67223 44.7936 1.67555 44.7936 1.67555 44.7969C1.76199 44.9637 1.85175 45.1272 1.94151 45.2906C1.94484 45.2973 1.95148 45.3073 1.95481 45.314C2.04125 45.4708 2.13101 45.6309 2.22077 45.7877C2.23074 45.8044 2.24072 45.8177 2.24737 45.8344C2.3338 45.9845 2.42024 46.1313 2.51 46.2781C2.52662 46.3048 2.53992 46.3282 2.55654 46.3515C2.63966 46.4883 2.72277 46.6251 2.80921 46.7618C2.83248 46.7985 2.85575 46.8319 2.8757 46.8686C2.95549 46.9954 3.03527 47.1188 3.11506 47.2456C3.14498 47.2923 3.17823 47.3423 3.21147 47.389C3.28461 47.4991 3.35775 47.6092 3.43089 47.7193C3.47743 47.786 3.52065 47.8494 3.56719 47.9161C3.63036 48.0062 3.69353 48.0996 3.75669 48.1897C3.81986 48.2764 3.88302 48.3632 3.94619 48.4532C3.99606 48.52 4.0426 48.59 4.09247 48.6567C4.2055 48.8102 4.32186 48.9637 4.43822 49.1171C6.29661 51.5424 8.49744 53.6675 10.9808 55.439C16.1405 59.1154 22.2243 61.057 28.5708 61.057C32.6766 61.057 36.6626 60.2496 40.4127 58.6583C44.0364 57.1204 47.2878 54.9186 50.0837 52.1163C50.4992 51.6992 50.9015 51.2689 51.2938 50.8285C51.2373 50.8852 51.1575 50.9253 51.0711 50.9286C51.0145 50.9319 50.9713 50.9319 50.9281 50.9319C50.8051 50.9319 50.712 50.9219 50.5125 50.9019L50.3397 50.8852C50.3363 50.8852 50.333 50.8852 50.3264 50.8852C49.0963 50.7618 48.2286 50.3448 47.311 49.9044C47.311 49.9044 47.311 49.9044 47.3077 49.9044C47.0019 50.1013 46.716 50.3248 46.46 50.5683C46.1508 50.8619 45.9447 51.1254 45.5723 51.6025C45.426 51.786 45.2864 51.9761 45.1468 52.163C45.3795 52.2464 45.6122 52.3298 45.8449 52.4165C46.071 52.4999 46.2306 52.5633 46.3569 52.6133C46.5265 52.6801 46.6395 52.7234 46.7891 52.7735C47.1947 52.9102 47.6269 53.007 48.0724 53.067C48.1255 53.0737 48.1787 53.0804 48.2319 53.0871C48.4148 53.1071 48.5444 53.2739 48.5245 53.454C48.5045 53.6242 48.3616 53.7509 48.1954 53.7509C48.1821 53.7509 48.1721 53.7509 48.1588 53.7476C47.9028 53.7176 47.6535 53.6775 47.4075 53.6275C47.1215 53.5675 46.8456 53.4941 46.5763 53.404C46.4101 53.3473 46.2838 53.3006 46.1109 53.2338C45.9846 53.1838 45.8283 53.1238 45.6056 53.0404C45.2399 52.9036 44.8675 52.7701 44.5018 52.6467C44.4021 52.6133 44.3256 52.5333 44.2924 52.4332C44.2591 52.3331 44.2758 52.223 44.3356 52.1363C44.5583 51.816 44.7977 51.4957 45.0404 51.1855C45.4227 50.6984 45.6521 50.4082 45.9945 50.0812C46.184 49.9011 46.3868 49.7343 46.5996 49.5742C45.4892 49.0771 44.3456 48.59 43.1986 48.1296C43.0656 48.0763 42.9792 47.9428 42.9892 47.796C42.9992 47.6526 43.1022 47.5291 43.2418 47.4958C44.1528 47.2723 45.0604 47.0054 45.9513 46.7051C45.6987 46.505 45.456 46.2981 45.2233 46.088C45.0437 45.9245 44.9141 45.8011 44.7312 45.6276C44.5916 45.4941 44.4254 45.334 44.1827 45.1038C43.92 44.8569 43.6508 44.6067 43.3848 44.3632C43.3017 44.2865 43.2618 44.1764 43.2784 44.0663C43.295 43.9562 43.3682 43.8595 43.4679 43.8128C43.807 43.656 44.1428 43.4791 44.4619 43.2823C44.7346 43.1155 44.9207 42.9854 45.0869 42.8686C45.2964 42.7219 45.4759 42.5917 45.7452 42.455C46.0777 42.2848 46.4367 42.1547 46.819 42.068C46.1641 41.0938 45.4759 40.113 44.7711 39.1522C44.6847 39.0355 44.6847 38.8754 44.7711 38.7586C44.8576 38.6418 45.0072 38.5918 45.1435 38.6385C46.2073 38.9888 47.3011 39.289 48.3982 39.5292C48.335 39.1789 48.2818 38.8253 48.2419 38.4784C48.2153 38.2382 48.1987 38.0547 48.1787 37.8078C48.1621 37.6176 48.1422 37.3841 48.1122 37.0505C48.079 36.6869 48.0391 36.3232 48.0025 35.9663C47.9892 35.8562 48.0358 35.7461 48.1189 35.6727C48.2053 35.5993 48.3217 35.576 48.4281 35.6093C48.7838 35.7161 49.1528 35.8062 49.5252 35.8729C49.8377 35.9296 50.0671 35.9529 50.2665 35.9763C50.5225 36.003 50.7419 36.0297 51.0312 36.1031C51.3403 36.1798 51.6429 36.2966 51.9388 36.4467C51.9454 35.2757 51.8922 34.0947 51.7725 32.9305C51.7592 32.787 51.839 32.6502 51.972 32.5902C52.105 32.5335 52.2579 32.5668 52.3543 32.6769C53.1455 33.581 53.96 34.4751 54.7746 35.3358C54.9474 35.0289 55.1203 34.7286 55.2899 34.435L55.3996 34.2515C55.5392 34.018 55.6389 33.8479 55.7719 33.5977C55.9381 33.2841 56.0911 32.9638 56.2307 32.6436C56.2806 32.5301 56.3903 32.4534 56.5133 32.4434C56.6396 32.4334 56.756 32.4968 56.8191 32.6035C57.0219 32.9405 57.2447 33.2707 57.4741 33.5877C57.6669 33.8512 57.8697 34.1081 58.0791 34.3616C58.232 34.5451 58.3916 34.7253 58.5512 34.8987C58.6775 35.0322 58.6676 35.2457 58.5346 35.3691C58.4016 35.4959 58.1888 35.4859 58.0658 35.3525C58.0292 35.3124 57.9927 35.269 57.9528 35.229C57.5904 34.832 57.248 34.4117 56.9355 33.9813C56.8158 33.8145 56.6961 33.6444 56.5798 33.4709C56.5066 33.6177 56.4335 33.7645 56.357 33.9113C56.2174 34.1715 56.1077 34.3583 55.9714 34.5918L55.865 34.7753C55.6622 35.1189 55.4594 35.4759 55.2599 35.8362C55.3032 35.8796 55.3464 35.9263 55.3896 35.9663C56.0911 36.6702 56.7526 37.3341 57.2746 38.405C57.2912 38.4383 57.3078 38.4683 57.3211 38.5017C57.5073 38.902 57.5605 39.0388 57.6336 39.2723C57.6868 39.4492 57.5904 39.636 57.4142 39.6894C57.238 39.7427 57.0518 39.646 56.9986 39.4692C56.992 39.4492 56.9854 39.4291 56.9787 39.4091C56.9222 39.2356 56.8723 39.1155 56.7161 38.7819C56.2373 37.7611 55.6256 37.1473 54.9142 36.4367C54.7347 36.2565 54.5485 36.0697 54.3623 35.8729C53.744 35.2223 53.1256 34.5518 52.5172 33.8712C52.5804 34.782 52.6103 35.7027 52.6003 36.6101C52.5937 37.2106 52.5837 37.651 52.5737 38.0046C52.5538 38.8387 52.5471 39.0889 52.6402 39.6093C52.7333 40.1297 52.8862 40.6401 53.0957 41.1305C53.6143 41.5242 54.0964 42.0046 54.5418 42.5684C55.1535 42.1414 55.752 41.9345 56.101 41.8411C56.1708 41.8211 56.234 41.8078 56.2839 41.7978C56.4634 41.7577 56.6396 41.8745 56.6795 42.0546C56.6928 42.118 56.6861 42.1814 56.6662 42.2381C58.2021 38.5251 58.9834 34.5885 58.9834 30.5318C58.9834 26.4118 58.1788 22.4118 56.5931 18.6487C55.0605 15.0124 52.8663 11.7497 50.0737 8.94403C47.2811 6.14173 44.0264 3.93991 40.4027 2.40198C36.6693 0.807331 32.6832 0 28.5774 0C27.4637 0 26.3467 0.0633855 25.2396 0.183484H25.2363C25.233 0.183484 25.2297 0.183484 25.2297 0.183484C24.9238 0.216845 24.6146 0.253542 24.3121 0.296911C24.3055 0.296911 24.2988 0.300247 24.2888 0.303583C24.2789 0.306919 24.2689 0.306919 24.2589 0.310256C24.2556 0.310256 24.2523 0.313592 24.2489 0.313592C24.2423 0.316928 24.2323 0.320264 24.2257 0.3236C24.219 0.326936 24.2157 0.326936 24.2091 0.330272C24.2057 0.333608 24.2024 0.333608 24.1991 0.336944C24.1891 0.343616 24.1791 0.350289 24.1692 0.356961H24.1658C24.1592 0.363633 24.1525 0.366969 24.1459 0.373641C24.1359 0.380313 24.1293 0.390321 24.1193 0.396994C24.1126 0.403666 24.106 0.410338 24.1027 0.41701C24.1027 0.41701 24.1027 0.41701 24.1027 0.420346C24.096 0.430354 24.0894 0.437027 24.0827 0.447035C24.0794 0.453707 24.0727 0.460379 24.0694 0.467051L24.0661 0.470387C24.0594 0.480396 24.0561 0.490404 24.0528 0.500412C24.0495 0.51042 24.0462 0.520429 24.0428 0.530437C24.0395 0.540445 24.0362 0.553789 24.0362 0.563798C24.0362 0.57047 24.0329 0.577142 24.0329 0.583814C24.0329 0.58715 24.0329 0.590486 24.0329 0.593822C24.0329 0.603831 24.0329 0.617175 24.0329 0.627183C24.0329 0.637191 24.0329 0.650536 24.0329 0.66388C24.0329 0.667216 24.0329 0.670552 24.0329 0.673888C24.0329 0.68056 24.0362 0.687233 24.0362 0.693905C24.0362 0.700577 24.0395 0.707249 24.0395 0.713921C24.0395 0.720594 24.0428 0.72393 24.0428 0.730602C24.0462 0.74061 24.0495 0.750618 24.0528 0.760626C24.0561 0.770635 24.0628 0.780643 24.0661 0.790651C24.0727 0.800659 24.0794 0.810668 24.086 0.820676C24.0927 0.827348 24.096 0.837356 24.1027 0.844028L24.106 0.847365C24.1126 0.854037 24.1193 0.864045 24.1259 0.870717C24.1293 0.874053 24.1326 0.877389 24.1392 0.880725C24.1426 0.884061 24.1459 0.887398 24.1459 0.887398C24.1525 0.890734 24.1592 0.897406 24.1658 0.900742C24.1692 0.904078 24.1725 0.904078 24.1758 0.907414C24.1791 0.91075 24.1825 0.91075 24.1858 0.914086C24.1891 0.917422 24.1958 0.920758 24.1991 0.920758C24.2057 0.924094 24.2124 0.92743 24.219 0.930767C24.2223 0.934103 24.229 0.934103 24.2323 0.937439C24.2356 0.937439 24.2356 0.940775 24.239 0.940775C24.2456 0.944111 24.2523 0.947447 24.2589 0.947447C24.2689 0.950783 24.2789 0.954119 24.2922 0.954119H24.2955C24.3021 0.954119 24.3088 0.957455 24.3154 0.957455C24.5315 0.984144 24.7476 1.0175 24.9637 1.05087C25.2164 5.36108 24.9371 12.6404 21.5561 20.4502V20.4535C20.7416 22.3351 19.7476 24.2466 18.5374 26.1549C16.4829 29.3942 14.1724 32.0664 11.8186 34.2682C11.7787 34.2916 11.7422 34.3216 11.7156 34.3616C11.7122 34.365 11.7122 34.3683 11.7089 34.3716C8.01538 37.7978 4.22212 40.063 1.16025 41.5209C0.980729 41.294 0.807855 41.0638 0.638305 40.8303ZM56.2274 29.3041C56.2274 30.2649 55.4528 31.0422 54.4953 31.0422C53.5378 31.0422 52.7632 30.2649 52.7632 29.3041C52.7632 28.3433 53.5378 27.566 54.4953 27.566C55.4494 27.566 56.2274 28.3433 56.2274 29.3041ZM53.5013 21.2842C54.2659 21.2842 54.8876 21.908 54.8876 22.6753C54.8876 23.4426 54.2659 24.0665 53.5013 24.0665C52.7366 24.0665 52.1149 23.4426 52.1149 22.6753C52.1149 21.908 52.7366 21.2842 53.5013 21.2842ZM50.6655 15.2692C51.2772 15.2692 51.7725 15.7663 51.7725 16.3802C51.7725 16.994 51.2772 17.4911 50.6655 17.4911C50.0538 17.4911 49.5584 16.994 49.5584 16.3802C49.5584 15.7663 50.0571 15.2692 50.6655 15.2692ZM10.0201 51.6158C9.65104 51.6158 9.35183 51.3156 9.35183 50.9453C9.35183 50.575 9.65104 50.2747 10.0201 50.2747C10.3891 50.2747 10.6883 50.575 10.6883 50.9453C10.6883 51.3156 10.3891 51.6158 10.0201 51.6158ZM15.4922 54.8952C15.0268 54.8952 14.6511 54.5182 14.6511 54.0512C14.6511 53.5841 15.0268 53.2072 15.4922 53.2072C15.9576 53.2072 16.3333 53.5841 16.3333 54.0512C16.3333 54.5149 15.9576 54.8952 15.4922 54.8952ZM20.2496 56.9903C19.7276 56.9903 19.3054 56.5666 19.3054 56.0428C19.3054 55.5191 19.7276 55.0954 20.2496 55.0954C20.7715 55.0954 21.1937 55.5191 21.1937 56.0428C21.1937 56.5633 20.7715 56.9903 20.2496 56.9903ZM27.7862 58.6416C27.1745 58.6416 26.6792 58.1446 26.6792 57.5307C26.6792 56.9169 27.1745 56.4198 27.7862 56.4198C28.3979 56.4198 28.8933 56.9169 28.8933 57.5307C28.8933 58.1446 28.3979 58.6416 27.7862 58.6416ZM35.0503 57.7242C34.2856 57.7242 33.6639 57.1004 33.6639 56.3331C33.6639 55.5658 34.2856 54.9419 35.0503 54.9419C35.8149 54.9419 36.4366 55.5658 36.4366 56.3331C36.4366 57.1037 35.8149 57.7242 35.0503 57.7242ZM43.2086 53.2038C43.2086 54.1646 42.434 54.9419 41.4765 54.9419C40.5191 54.9419 39.7445 54.1646 39.7445 53.2038C39.7445 52.243 40.5191 51.4657 41.4765 51.4657C42.434 51.4657 43.2086 52.243 43.2086 53.2038ZM46.9753 10.2084C47.4972 10.2084 47.9194 10.6321 47.9194 11.1559C47.9194 11.6796 47.4972 12.1033 46.9753 12.1033C46.4533 12.1033 46.0311 11.6796 46.0311 11.1559C46.0278 10.6321 46.4533 10.2084 46.9753 10.2084ZM42.4074 6.29519C42.8728 6.29519 43.2485 6.67216 43.2485 7.13921C43.2485 7.60626 42.8728 7.98324 42.4074 7.98324C41.942 7.98324 41.5663 7.60626 41.5663 7.13921C41.5663 6.67216 41.942 6.29519 42.4074 6.29519ZM38.3615 3.80313C38.7305 3.80313 39.0297 4.10338 39.0297 4.47368C39.0297 4.84399 38.7305 5.14424 38.3615 5.14424C37.9925 5.14424 37.6932 4.84399 37.6932 4.47368C37.6932 4.10338 37.9925 3.80313 38.3615 3.80313ZM25.6353 1.16429C35.8282 3.02916 43.7339 11.0825 45.6953 21.1241C44.7113 22.1049 41.2106 25.2408 36.0443 25.8847C35.8116 25.6611 35.7052 25.0573 35.6553 24.7204C35.6487 24.6803 35.5888 24.677 35.5822 24.7204C35.5257 25.0573 35.416 25.6478 35.1999 25.848C35.1467 25.898 35.0835 25.938 35.0104 25.9747C34.2723 26.0148 33.5044 26.0048 32.7098 25.928C27.1812 25.3976 23.6339 22.0982 22.2443 20.5336C25.5655 12.7638 25.878 5.52789 25.6353 1.16429ZM19.0993 26.5152C20.223 24.7404 21.1671 22.9622 21.9517 21.2075C23.5242 22.9055 27.1413 26.0681 32.6466 26.5952C33.1653 26.6453 33.6739 26.6686 34.1726 26.6686C34.5582 26.6686 34.9372 26.6553 35.3096 26.6286C35.3162 26.6386 35.3229 26.6486 35.3295 26.6586C33.7437 31.1023 30.6187 34.5017 26.7157 36.1831C26.5927 35.9062 26.5262 35.5226 26.4897 35.2791C26.483 35.239 26.4232 35.2357 26.4165 35.2791C26.36 35.616 26.2503 36.2065 26.0342 36.4067C25.9943 36.4433 25.9478 36.4767 25.8979 36.5067C24.9039 36.867 23.8666 37.1172 22.7961 37.2473C18.0288 37.8345 14.2023 35.7027 12.5035 34.5218C15.0301 32.1298 17.2376 29.4509 19.0993 26.5152ZM9.18561 37.3641C10.163 36.6102 11.1072 35.8162 12.0081 34.9888C13.1152 35.7728 14.3619 36.4467 15.6318 36.9438C17.4537 37.6577 19.3021 38.0146 21.1439 38.0146C21.7223 38.0146 22.3008 37.9779 22.8792 37.9079C23.983 37.7711 25.0634 37.5109 26.104 37.1339C26.1073 37.1373 26.1107 37.1373 26.1107 37.1406C26.2902 37.3274 26.38 37.7878 26.4232 38.0747C26.4298 38.1147 26.4897 38.1181 26.4963 38.0747C26.5462 37.7878 26.6393 37.3274 26.8221 37.1373C27.0149 36.9371 27.3474 36.8403 27.5568 36.7903C27.5934 36.7803 27.5934 36.7269 27.5568 36.7202C27.477 36.7036 27.3773 36.6802 27.2809 36.6468C28.6107 36.033 29.864 35.2223 31.0043 34.2282C33.2982 32.2299 35.0469 29.5777 36.0676 26.5485C41.0011 25.9514 44.4819 23.1691 45.835 21.908C46.0511 23.2391 46.1641 24.6003 46.1641 25.9881C46.1641 39.9329 34.8574 51.2789 20.961 51.2789C20.8347 51.2789 20.7117 51.2789 20.5853 51.2756C20.5488 51.2756 20.5122 51.2722 20.4756 51.2722C20.3892 51.2689 20.2994 51.2689 20.213 51.2656C20.1598 51.2656 20.1066 51.2622 20.0534 51.2589C19.9836 51.2555 19.9105 51.2556 19.8407 51.2522C19.7808 51.2489 19.7243 51.2455 19.6645 51.2422C19.598 51.2389 19.5348 51.2355 19.4683 51.2322C19.4018 51.2289 19.3353 51.2222 19.2688 51.2188C19.2123 51.2155 19.1525 51.2122 19.096 51.2055C19.0261 51.1988 18.9563 51.1922 18.8832 51.1888C18.83 51.1855 18.7768 51.1788 18.7236 51.1755C18.6505 51.1688 18.5773 51.1621 18.5042 51.1555C18.4543 51.1488 18.4045 51.1455 18.3546 51.1421C18.2848 51.1354 18.2116 51.1254 18.1418 51.1188C18.0886 51.1121 18.0388 51.1088 17.9856 51.1021C17.9124 51.0921 17.8426 51.0821 17.7695 51.0754C17.7196 51.0687 17.6697 51.0621 17.6166 51.0554C17.5401 51.0454 17.467 51.0354 17.3905 51.022C17.3439 51.0154 17.2974 51.0087 17.2475 51.002C17.1711 50.992 17.0946 50.9787 17.0181 50.9653C16.9716 50.9586 16.9284 50.952 16.8818 50.942C16.8054 50.9286 16.7256 50.9153 16.6491 50.9019C16.6059 50.8953 16.5627 50.8886 16.5195 50.8786C16.4397 50.8652 16.3566 50.8485 16.2768 50.8319C16.2369 50.8252 16.197 50.8185 16.1571 50.8085C16.074 50.7918 15.9909 50.7752 15.9044 50.7551C15.8679 50.7485 15.8313 50.7418 15.7947 50.7318C15.7116 50.7151 15.6252 50.6951 15.5421 50.6751C15.5055 50.6684 15.4722 50.6584 15.4357 50.6517C15.3492 50.6317 15.2661 50.6117 15.1797 50.5917C15.1464 50.5817 15.1099 50.575 15.0766 50.5683C14.9902 50.545 14.9004 50.5249 14.814 50.5016C14.7841 50.4949 14.7508 50.4849 14.7209 50.4782C14.6311 50.4549 14.5414 50.4315 14.4516 50.4048C14.4217 50.3982 14.3918 50.3882 14.3652 50.3815C14.2754 50.3548 14.1823 50.3315 14.0926 50.3048C14.066 50.2981 14.0394 50.2881 14.0128 50.2814C13.9197 50.2547 13.8299 50.228 13.7369 50.198C13.7103 50.1913 13.687 50.1813 13.6604 50.1747C13.5673 50.1446 13.4742 50.1146 13.3778 50.0846C13.3545 50.0779 13.3313 50.0712 13.308 50.0612C13.2149 50.0312 13.1185 49.9978 13.0254 49.9678C13.0021 49.9611 12.9822 49.9545 12.9589 49.9445C12.8625 49.9111 12.7661 49.8777 12.6697 49.8444C12.6497 49.8377 12.6298 49.831 12.6098 49.8244C12.5134 49.791 12.417 49.7543 12.3206 49.7176C12.304 49.7109 12.284 49.7043 12.2674 49.6976C12.1677 49.6609 12.0713 49.6242 11.9715 49.5842C11.9549 49.5775 11.9383 49.5708 11.9217 49.5642C11.8219 49.5241 11.7255 49.4874 11.6258 49.4474C11.6092 49.4407 11.5959 49.434 11.5793 49.4274C11.4795 49.3873 11.3798 49.344 11.28 49.3039C11.2668 49.2973 11.2535 49.2939 11.2402 49.2873C11.1371 49.2439 11.0374 49.2005 10.9376 49.1572C10.9277 49.1538 10.9144 49.1471 10.9044 49.1438C10.8013 49.1004 10.7016 49.0537 10.6018 49.007C10.5919 49.0037 10.5819 48.997 10.5719 48.9937C10.4689 48.947 10.3658 48.8969 10.2627 48.8502C10.2561 48.8469 10.2461 48.8436 10.2395 48.8402C10.1364 48.7902 10.0334 48.7401 9.9303 48.6901C9.92365 48.6868 9.917 48.6834 9.90703 48.6801C9.80397 48.6301 9.70091 48.5767 9.59785 48.5233C9.5912 48.52 9.58455 48.5166 9.58123 48.5133C9.47817 48.4599 9.37178 48.4065 9.26872 48.3498C9.2654 48.3465 9.25875 48.3465 9.25542 48.3432C9.14904 48.2864 9.04598 48.2297 8.94292 48.173C8.9396 48.1697 8.93627 48.1697 8.93295 48.1663C8.82656 48.1096 8.7235 48.0496 8.62044 47.9895C8.61712 47.9895 8.61379 47.9862 8.61379 47.9862C8.50741 47.9261 8.40435 47.8661 8.30129 47.8027L8.29797 47.7994C8.19158 47.736 8.08852 47.6759 7.98214 47.6092C5.57852 46.1447 3.40762 44.2731 1.57914 42.0546C4.25537 40.7736 6.80859 39.1956 9.18561 37.3641Z" fill="#A28C41"/>
<path d="M56.4401 42.445C56.3038 42.475 56.0611 42.5384 55.7686 42.6585C55.4494 42.7886 55.0704 42.9887 54.7014 43.289C54.6981 43.2923 54.6981 43.2957 54.6948 43.2957C54.6948 43.2957 54.6914 43.2957 54.6914 43.299C54.3623 43.5692 54.0365 43.9195 53.7739 44.3732C53.1655 45.4174 53.1821 46.4683 53.2918 47.1455C53.3484 47.4891 53.4315 47.7393 53.468 47.8394C53.5312 48.0129 53.4414 48.203 53.2686 48.2664C53.232 48.2798 53.1921 48.2864 53.1555 48.2864C53.0192 48.2864 52.8929 48.203 52.843 48.0663C52.8264 48.0262 52.8065 47.9628 52.7832 47.8794C52.6901 47.5692 52.5571 46.992 52.5737 46.2881C51.9388 46.0913 51.0179 45.9045 49.8277 46.0846C49.1894 46.1814 48.7472 46.3582 48.079 46.6284C47.7765 46.7518 47.4307 46.8886 47.0019 47.0454C46.1508 47.359 45.2798 47.6392 44.4021 47.8828C45.2465 48.2297 46.081 48.5934 46.8988 48.9603C47.1448 49.0704 47.3842 49.1838 47.6136 49.2939C48.5178 49.7276 49.2991 50.1013 50.4195 50.2147L50.5923 50.2314C50.7519 50.2481 50.825 50.2547 50.9015 50.2581C50.9481 50.2581 50.9946 50.2581 51.0611 50.2547C51.2439 50.2481 51.4002 50.3915 51.4068 50.575C51.4102 50.6617 51.3802 50.7385 51.3304 50.8018C53.5445 48.3065 55.3231 45.4908 56.623 42.4083C56.6463 42.3549 56.6662 42.3048 56.6862 42.2515C56.6296 42.3482 56.5465 42.4216 56.4401 42.445Z" fill="#A28C41"/>
<path d="M46.4898 59.0887C46.2936 59.0486 46.0011 58.9686 45.8282 58.8218C45.5855 58.6116 45.4725 57.9878 45.4226 57.6441C45.416 57.6041 45.3561 57.6008 45.3495 57.6441C45.2929 57.9811 45.1832 58.5716 44.9671 58.7717C44.7876 58.9385 44.4651 59.032 44.2557 59.082C44.2191 59.092 44.2191 59.1454 44.2557 59.1521C44.4784 59.1988 44.8408 59.2955 45.0403 59.5057C45.2198 59.6925 45.3096 60.1529 45.3528 60.4398C45.3594 60.4798 45.4193 60.4831 45.4259 60.4398C45.4758 60.1529 45.5689 59.6925 45.7517 59.5023C45.9445 59.3022 46.277 59.2054 46.4864 59.1554C46.5297 59.1521 46.5297 59.0953 46.4898 59.0887Z" fill="#A28C41"/>
<path d="M45.3796 66.3613C45.1369 66.3613 44.9441 66.5582 44.9441 66.7984C44.9441 67.0419 45.1402 67.2354 45.3796 67.2354C45.6223 67.2354 45.8151 67.0386 45.8151 66.7984C45.8151 66.5582 45.619 66.3613 45.3796 66.3613Z" fill="#A28C41"/>
<path d="M45.3796 67.9993C45.1369 67.9993 44.9441 68.1962 44.9441 68.4364C44.9441 68.6799 45.1402 68.8734 45.3796 68.8734C45.6223 68.8734 45.8151 68.6765 45.8151 68.4364C45.8151 68.1962 45.619 67.9993 45.3796 67.9993Z" fill="#A28C41"/>
<path d="M45.3962 64.3831C45.0704 64.3831 44.8044 64.6499 44.8044 64.9769C44.8044 65.3038 45.0704 65.5707 45.3962 65.5707C45.722 65.5707 45.988 65.3038 45.988 64.9769C45.988 64.6499 45.722 64.3831 45.3962 64.3831Z" fill="#A28C41"/>
<path d="M45.396 63.5757C45.6387 63.5757 45.8315 63.3789 45.8315 63.1387C45.8315 62.8952 45.6354 62.7017 45.396 62.7017C45.1533 62.7017 44.9605 62.8985 44.9605 63.1387C44.9572 63.3789 45.1533 63.5757 45.396 63.5757Z" fill="#A28C41"/>
<path d="M45.396 61.7375C45.6387 61.7375 45.8315 61.5407 45.8315 61.3005C45.8315 61.057 45.6354 60.8635 45.396 60.8635C45.1533 60.8635 44.9605 61.0603 44.9605 61.3005C44.9572 61.5407 45.1533 61.7375 45.396 61.7375Z" fill="#A28C41"/>
<path d="M31.1538 63.0253C30.9577 62.9852 30.6618 62.9052 30.4923 62.7584C30.2496 62.5482 30.1365 61.9243 30.0867 61.5807C30.08 61.5407 30.0202 61.5374 30.0135 61.5807C29.957 61.9177 29.8473 62.5082 29.6312 62.7083C29.4517 62.8751 29.1292 62.9685 28.9198 63.0186C28.8832 63.0286 28.8832 63.082 28.9198 63.0886C29.1425 63.1353 29.5049 63.2321 29.7043 63.4423C29.8839 63.6291 29.9736 64.0895 30.0169 64.3764C30.0235 64.4164 30.0833 64.4197 30.09 64.3764C30.1399 64.0895 30.2329 63.6291 30.4158 63.4389C30.6086 63.2421 30.9411 63.142 31.1505 63.092C31.1937 63.0886 31.1937 63.0319 31.1538 63.0253Z" fill="#A28C41"/>
<path d="M30.0434 70.2979C29.8007 70.2979 29.6079 70.4947 29.6079 70.7349C29.6079 70.9751 29.8041 71.172 30.0434 71.172C30.2861 71.172 30.4789 70.9751 30.4789 70.7349C30.4789 70.4947 30.2828 70.2979 30.0434 70.2979Z" fill="#A28C41"/>
<path d="M30.0569 68.3196C29.731 68.3196 29.4651 68.5865 29.4651 68.9134C29.4651 69.2403 29.731 69.5072 30.0569 69.5072C30.3827 69.5072 30.6486 69.2403 30.6486 68.9134C30.6486 68.5865 30.3827 68.3196 30.0569 68.3196Z" fill="#A28C41"/>
<path d="M30.0569 67.5122C30.2995 67.5122 30.4924 67.3154 30.4924 67.0752C30.4924 66.8317 30.2962 66.6382 30.0569 66.6382C29.8142 66.6382 29.6213 66.835 29.6213 67.0752C29.6213 67.3154 29.8175 67.5122 30.0569 67.5122Z" fill="#A28C41"/>
<path d="M30.0569 65.6741C30.2995 65.6741 30.4924 65.4773 30.4924 65.2371C30.4924 64.9935 30.2962 64.8 30.0569 64.8C29.8142 64.8 29.6213 64.9969 29.6213 65.2371C29.6213 65.4773 29.8175 65.6741 30.0569 65.6741Z" fill="#A28C41"/>
<path d="M46.9521 71.4355L45.6588 69.7308C45.5957 69.6474 45.4993 69.6006 45.3929 69.6006C45.2898 69.6006 45.1901 69.6507 45.1269 69.7308L43.8337 71.4355C43.7705 71.5189 43.7506 71.6323 43.7805 71.7324L45.0737 76.0326C45.1169 76.1727 45.2466 76.2695 45.3929 76.2695C45.5392 76.2695 45.6688 76.1727 45.712 76.0326L47.0053 71.7324C47.0352 71.6323 47.0152 71.5189 46.9521 71.4355ZM45.3962 74.7816L44.472 71.7057L45.3962 70.4847L46.3204 71.7057L45.3962 74.7816Z" fill="#A28C41"/>
<path d="M16.0176 60.6533C15.8215 60.6133 15.5256 60.5332 15.356 60.3864C15.1133 60.1762 15.0003 59.5524 14.9504 59.2088C14.9438 59.1687 14.8839 59.1654 14.8773 59.2088C14.8208 59.5457 14.7111 60.1362 14.495 60.3364C14.3155 60.5032 13.993 60.5966 13.7835 60.6466C13.747 60.6566 13.747 60.71 13.7835 60.7167C14.0063 60.7634 14.3686 60.8601 14.5681 61.0703C14.7476 61.2571 14.8374 61.7175 14.8806 62.0044C14.8873 62.0445 14.9471 62.0478 14.9538 62.0044C15.0036 61.7175 15.0967 61.2571 15.2796 61.067C15.4724 60.8702 15.8048 60.7701 16.0143 60.72C16.0575 60.7167 16.0575 60.6633 16.0176 60.6533Z" fill="#A28C41"/>
<path d="M14.9069 67.926C14.6643 67.926 14.4714 68.1228 14.4714 68.363C14.4714 68.6065 14.6676 68.8 14.9069 68.8C15.1496 68.8 15.3425 68.6032 15.3425 68.363C15.3425 68.1228 15.1463 67.926 14.9069 67.926Z" fill="#A28C41"/>
<path d="M14.9069 69.564C14.6643 69.564 14.4714 69.7608 14.4714 70.001C14.4714 70.2445 14.6676 70.438 14.9069 70.438C15.1496 70.438 15.3425 70.2412 15.3425 70.001C15.3425 69.7608 15.1463 69.564 14.9069 69.564Z" fill="#A28C41"/>
<path d="M14.9204 65.9476C14.5946 65.9476 14.3286 66.2145 14.3286 66.5415C14.3286 66.8684 14.5946 67.1353 14.9204 67.1353C15.2462 67.1353 15.5121 66.8684 15.5121 66.5415C15.5121 66.2145 15.2495 65.9476 14.9204 65.9476Z" fill="#A28C41"/>
<path d="M14.9204 65.1403C15.1631 65.1403 15.3559 64.9435 15.3559 64.7033C15.3559 64.4597 15.1597 64.2662 14.9204 64.2662C14.6777 64.2662 14.4849 64.4631 14.4849 64.7033C14.4849 64.9468 14.681 65.1403 14.9204 65.1403Z" fill="#A28C41"/>
<path d="M14.9204 63.3022C15.1631 63.3022 15.3559 63.1053 15.3559 62.8651C15.3559 62.6216 15.1597 62.4281 14.9204 62.4281C14.6777 62.4281 14.4849 62.6249 14.4849 62.8651C14.4849 63.1053 14.681 63.3022 14.9204 63.3022Z" fill="#A28C41"/>
<path d="M13.3113 73.3003L14.6045 77.6005C14.6477 77.7407 14.7774 77.8374 14.9236 77.8374C15.0699 77.8374 15.1996 77.7407 15.2428 77.6005L16.536 73.3003C16.5659 73.1969 16.546 73.0868 16.4828 73.0034L15.1896 71.2987C15.1264 71.2153 15.03 71.1686 14.9236 71.1686C14.8206 71.1686 14.7208 71.2186 14.6577 71.2987L13.3644 73.0034C13.3013 73.0868 13.2813 73.1969 13.3113 73.3003ZM14.9203 72.0493L15.8445 73.2703L14.9203 76.3462L13.9961 73.2703L14.9203 72.0493Z" fill="#A28C41"/>
<path d="M33.9099 76.0626C33.9099 76.0593 33.9132 76.056 33.9132 76.0526C33.9198 76.036 33.9231 76.0226 33.9265 76.0059C33.9265 75.9993 33.9298 75.9959 33.9298 75.9893C33.9331 75.9726 33.9331 75.9592 33.9364 75.9425C33.9364 75.9392 33.9364 75.9359 33.9364 75.9325C33.9364 75.9125 33.9364 75.8958 33.9331 75.8758C33.9331 75.8725 33.9298 75.8658 33.9298 75.8625C33.9265 75.8491 33.9231 75.8325 33.9165 75.8191C33.9132 75.8124 33.9132 75.8091 33.9099 75.8024C33.9032 75.7858 33.8932 75.7691 33.8833 75.7524C33.8833 75.7491 33.8799 75.7457 33.8766 75.7457C33.87 75.7357 33.8633 75.7257 33.8567 75.719C33.8533 75.7157 33.85 75.7124 33.8434 75.7057C33.84 75.7023 33.84 75.7024 33.8367 75.699L30.2994 72.2028C30.2961 72.1995 30.2928 72.1995 30.2928 72.1961C30.2828 72.1861 30.2695 72.1761 30.2595 72.1661C30.2562 72.1628 30.2496 72.1594 30.2462 72.1561C30.2296 72.1461 30.213 72.1361 30.1964 72.1294C30.1964 72.1294 30.1931 72.1294 30.1931 72.1261C30.1764 72.1194 30.1565 72.1127 30.1399 72.1094C30.1332 72.1094 30.1266 72.1061 30.1199 72.1061C30.1099 72.1061 30.1033 72.1027 30.0933 72.1027C30.09 72.1027 30.0833 72.1027 30.08 72.1027C30.0734 72.1027 30.0667 72.1027 30.0601 72.1027C30.0468 72.1027 30.0335 72.1027 30.0235 72.1061C30.0169 72.1061 30.0102 72.1094 30.0036 72.1094C29.9903 72.1127 29.977 72.1161 29.9637 72.1194C29.957 72.1227 29.9537 72.1227 29.947 72.1261C29.9304 72.1327 29.9138 72.1428 29.8972 72.1528C29.8905 72.1561 29.8872 72.1594 29.8805 72.1628C29.8672 72.1694 29.8573 72.1795 29.8473 72.1895C29.844 72.1928 29.8407 72.1928 29.8407 72.1961L26.2036 76.026L26.2003 76.0293C26.1937 76.036 26.1837 76.046 26.177 76.056C26.1737 76.0593 26.1704 76.066 26.1671 76.0693C26.1638 76.0727 26.1604 76.0793 26.1571 76.0827C26.1471 76.0993 26.1372 76.116 26.1305 76.1327C26.1305 76.136 26.1272 76.1394 26.1272 76.1394C26.1205 76.1561 26.1172 76.1694 26.1106 76.1861C26.1106 76.1928 26.1072 76.1961 26.1072 76.2028C26.1039 76.2194 26.1006 76.2395 26.1006 76.2561C26.1006 76.2561 26.1006 76.2561 26.1006 76.2595C26.1006 76.2795 26.1006 76.2962 26.1039 76.3162C26.1039 76.3229 26.1072 76.3262 26.1072 76.3329C26.1106 76.3496 26.1139 76.3629 26.1205 76.3796C26.1205 76.3829 26.1239 76.3862 26.1239 76.3896V76.3929L29.4849 84.7965C29.4883 84.8065 29.4949 84.8165 29.4982 84.8232C29.5016 84.8265 29.5016 84.8332 29.5049 84.8365C29.5149 84.8532 29.5248 84.8666 29.5348 84.8799C29.5381 84.8832 29.5381 84.8832 29.5414 84.8866C29.5514 84.8966 29.5614 84.9066 29.5714 84.9166C29.5747 84.9199 29.5813 84.9233 29.5847 84.9266C29.5946 84.9333 29.6046 84.94 29.6146 84.9466C29.6212 84.95 29.6246 84.9533 29.6312 84.9566C29.6412 84.9633 29.6512 84.9666 29.6611 84.97C29.6678 84.9733 29.6744 84.9767 29.6811 84.9767C29.6911 84.98 29.7043 84.9833 29.7176 84.9867C29.7243 84.9867 29.7276 84.99 29.7343 84.99C29.7509 84.9933 29.7708 84.9967 29.7875 84.9967C29.7941 84.9967 29.8008 84.9967 29.8041 84.9967C29.8207 84.9967 29.8373 84.9933 29.854 84.99C29.8606 84.99 29.8639 84.9867 29.8706 84.9867C29.8805 84.9833 29.8938 84.98 29.9038 84.9767C29.9105 84.9733 29.9171 84.9733 29.9204 84.97C29.9304 84.9666 29.9404 84.96 29.9504 84.9566C29.957 84.9533 29.9603 84.95 29.967 84.9466C29.977 84.94 29.9869 84.9333 29.9969 84.9266C30.0002 84.9233 30.0036 84.9199 30.0069 84.9166C30.0202 84.9066 30.0302 84.8933 30.0435 84.8799C30.0468 84.8766 30.0468 84.8766 30.0468 84.8732C30.0567 84.8632 30.0634 84.8499 30.07 84.8365C30.0734 84.8299 30.0767 84.8265 30.08 84.8199C30.0833 84.8132 30.0867 84.8065 30.09 84.7998L33.9099 76.0626ZM32.9557 75.7357L31.5229 76.0626L30.9411 73.6407L32.9557 75.7357ZM30.2396 73.5573L30.8779 76.2028L29.0328 76.2895L30.2396 73.5573ZM29.3486 73.9276L28.3147 76.2695L27.1345 76.0526L29.3486 73.9276ZM26.965 76.6998L28.2183 76.9334L28.9896 81.774L26.965 76.6998ZM29.8107 82.6881L28.8965 76.9634L30.8646 76.8733L29.8107 82.6881ZM30.6286 81.9208L31.5694 76.7332L33.0388 76.3996L30.6286 81.9208Z" fill="#A28C41"/>
<path d="M26.4465 31.4626C26.2038 31.4626 26.011 31.6594 26.011 31.8996C26.011 32.1432 26.2071 32.3366 26.4465 32.3366C26.6892 32.3366 26.882 32.1398 26.882 31.8996C26.882 31.6594 26.6892 31.4626 26.4465 31.4626Z" fill="#A28C41"/>
<path d="M26.4465 33.5676C26.2038 33.5676 26.011 33.7645 26.011 34.0047C26.011 34.2482 26.2071 34.4417 26.4465 34.4417C26.6892 34.4417 26.882 34.2448 26.882 34.0047C26.882 33.7645 26.6892 33.5676 26.4465 33.5676Z" fill="#A28C41"/>
<path d="M26.4631 30.5451C26.7889 30.5451 27.0549 30.2782 27.0549 29.9513C27.0549 29.6244 26.7889 29.3575 26.4631 29.3575C26.1373 29.3575 25.8713 29.6244 25.8713 29.9513C25.8713 30.2782 26.134 30.5451 26.4631 30.5451Z" fill="#A28C41"/>
<path d="M26.4631 28.4735C26.7058 28.4735 26.8987 28.2767 26.8987 28.0365C26.8987 27.7929 26.7025 27.5994 26.4631 27.5994C26.2205 27.5994 26.0276 27.7963 26.0276 28.0365C26.0243 28.2767 26.2205 28.4735 26.4631 28.4735Z" fill="#A28C41"/>
<path d="M26.4631 26.5586C26.7058 26.5586 26.8987 26.3617 26.8987 26.1215C26.8987 25.878 26.7025 25.6845 26.4631 25.6845C26.2205 25.6845 26.0276 25.8813 26.0276 26.1215C26.0243 26.3651 26.2205 26.5586 26.4631 26.5586Z" fill="#A28C41"/>
<path d="M26.4631 39.2223C26.7058 39.2223 26.8987 39.0255 26.8987 38.7853C26.8987 38.5418 26.7025 38.3483 26.4631 38.3483C26.2205 38.3483 26.0276 38.5451 26.0276 38.7853C26.0243 39.0255 26.2205 39.2223 26.4631 39.2223Z" fill="#A28C41"/>
<path d="M24.1393 41.9779L24.7444 46.6818C24.7444 46.6885 24.7477 46.6985 24.7477 46.7051C24.7477 46.7118 24.751 46.7185 24.751 46.7252C24.7543 46.7418 24.761 46.7552 24.7676 46.7685C24.771 46.7785 24.7776 46.7885 24.7809 46.7986C24.7876 46.8086 24.7909 46.8186 24.7976 46.8252C24.8042 46.8353 24.8109 46.8419 24.8175 46.8486C24.8208 46.8519 24.8242 46.8553 24.8275 46.8586L26.5064 48.7468C26.5097 48.7502 26.513 48.7502 26.513 48.7535C26.5163 48.7568 26.5163 48.7602 26.5197 48.7635C26.5263 48.7702 26.533 48.7769 26.5429 48.7802C26.5496 48.7869 26.5596 48.7935 26.5662 48.8002C26.5762 48.8069 26.5895 48.8135 26.6028 48.8202C26.6094 48.8236 26.6161 48.8302 26.626 48.8336C26.6393 48.8402 26.656 48.8436 26.6693 48.8469C26.6759 48.8502 26.6826 48.8502 26.6892 48.8536C26.7058 48.8569 26.7191 48.8569 26.7358 48.8603C26.7424 48.8603 26.749 48.8603 26.7557 48.8603C26.7756 48.8603 26.7956 48.8569 26.8155 48.8536C26.8222 48.8536 26.8288 48.8502 26.8355 48.8502C26.8455 48.8469 26.8554 48.8469 26.8621 48.8436C26.8654 48.8436 26.8687 48.8402 26.8721 48.8402C26.8787 48.8369 26.8854 48.8336 26.8887 48.8336C26.902 48.8269 26.9153 48.8202 26.9252 48.8136C26.9286 48.8102 26.9352 48.8069 26.9385 48.8035C26.9552 48.7935 26.9718 48.7802 26.9851 48.7668C26.9851 48.7668 26.9851 48.7668 26.9884 48.7635L28.8535 46.8753C28.8568 46.8719 28.8601 46.8653 28.8634 46.8619C28.8668 46.8586 28.8701 46.8519 28.8767 46.8486C28.8867 46.8353 28.8934 46.8252 28.9033 46.8119C28.9067 46.8086 28.9067 46.8052 28.91 46.8019C28.92 46.7852 28.9266 46.7685 28.9332 46.7485C28.9366 46.7452 28.9366 46.7385 28.9366 46.7318C28.9399 46.7185 28.9432 46.7018 28.9465 46.6885C28.9465 46.6818 28.9499 46.6751 28.9499 46.6718C28.9532 46.6518 28.9532 46.6318 28.9499 46.6117L28.5343 41.7444V41.7411C28.531 41.721 28.5277 41.7044 28.5243 41.6843C28.5243 41.681 28.5243 41.6777 28.521 41.6743C28.5144 41.6577 28.5077 41.6376 28.5011 41.6243C28.4977 41.621 28.4977 41.6176 28.4944 41.611C28.4844 41.5943 28.4745 41.5776 28.4645 41.5642L26.8687 39.5793C26.8621 39.5693 26.8521 39.5626 26.8455 39.5559C26.8388 39.5493 26.8322 39.5393 26.8222 39.5326C26.8122 39.5226 26.8022 39.5159 26.7889 39.5092C26.7823 39.5059 26.7756 39.4992 26.7657 39.4959C26.7557 39.4892 26.7424 39.4859 26.7324 39.4792C26.7225 39.4759 26.7158 39.4725 26.7058 39.4692C26.6959 39.4659 26.6826 39.4625 26.6726 39.4625C26.6626 39.4592 26.6493 39.4592 26.6393 39.4558C26.636 39.4558 26.6294 39.4525 26.626 39.4525C26.6194 39.4525 26.6127 39.4525 26.6061 39.4525C26.5994 39.4525 26.5895 39.4525 26.5828 39.4525C26.5762 39.4525 26.5729 39.4558 26.5662 39.4558C26.5562 39.4558 26.5496 39.4592 26.5396 39.4592C26.5263 39.4625 26.5097 39.4659 26.4964 39.4692C26.4897 39.4725 26.4831 39.4759 26.4731 39.4792C26.4598 39.4859 26.4465 39.4925 26.4332 39.4992C26.4266 39.5026 26.4199 39.5092 26.41 39.5126C26.4 39.5192 26.39 39.5292 26.38 39.5393C26.3767 39.5426 26.3701 39.5459 26.3667 39.5493L24.2324 41.701C24.2224 41.711 24.2158 41.7177 24.2091 41.7277C24.2058 41.7311 24.2058 41.7311 24.2025 41.7344C24.1925 41.7511 24.1825 41.7644 24.1726 41.7811C24.1692 41.7844 24.1692 41.7911 24.1659 41.7944C24.1593 41.8078 24.1559 41.8211 24.1493 41.8345C24.1493 41.8411 24.146 41.8445 24.146 41.8512C24.1426 41.8678 24.1393 41.8879 24.136 41.9079C24.136 41.9112 24.136 41.9145 24.136 41.9212C24.136 41.9379 24.136 41.9546 24.136 41.9713C24.1393 41.9746 24.1393 41.9746 24.1393 41.9779ZM27.1513 47.6526L27.2045 46.922L27.8461 46.9453L27.1513 47.6526ZM28.255 46.2948L27.2245 46.2548L27.1314 42.4617L27.906 42.2148L28.255 46.2948ZM27.6367 41.6009L27.0915 41.7744L27.0183 40.8337L27.6367 41.6009ZM26.4798 47.7227L25.7949 46.9487L26.5396 46.922L26.4798 47.7227ZM26.3302 40.5367L26.4299 41.8545L25.9079 41.8111L25.1699 41.701L26.3302 40.5367ZM25.8248 42.4717C25.8315 42.4717 25.8381 42.475 25.8448 42.475L26.4698 42.5284L26.5596 46.2581L25.3661 46.3015L24.8541 42.3349L25.8248 42.4717Z" fill="#A28C41"/>
<path d="M17.1678 48.213C17.1977 48.3698 17.334 48.4833 17.4936 48.4833C17.6532 48.4833 17.7895 48.3698 17.8194 48.213L18.7071 43.6793C18.7204 43.6059 18.7104 43.5325 18.6771 43.4658L17.7895 41.6677C17.733 41.5542 17.6166 41.4808 17.4903 41.4808C17.364 41.4808 17.2476 41.5542 17.1911 41.6677L16.3034 43.4658C16.2702 43.5325 16.2602 43.6059 16.2735 43.6793L17.1678 48.213ZM17.4936 42.5684L18.0322 43.6626L17.4936 46.4182L16.955 43.6626L17.4936 42.5684Z" fill="#A28C41"/>
<path d="M17.4936 39.0622C17.7341 39.0622 17.9291 38.8665 17.9291 38.6251C17.9291 38.3838 17.7341 38.1881 17.4936 38.1881C17.2531 38.1881 17.0581 38.3838 17.0581 38.6251C17.0581 38.8665 17.2531 39.0622 17.4936 39.0622Z" fill="#A28C41"/>
<path d="M17.4936 40.7035C17.7363 40.7035 17.9291 40.5067 17.9291 40.2665C17.9291 40.023 17.733 39.8295 17.4936 39.8295C17.2509 39.8295 17.0581 40.0263 17.0581 40.2665C17.0581 40.5067 17.2509 40.7035 17.4936 40.7035Z" fill="#A28C41"/>
<path d="M39.8375 36.0897C39.8674 36.2465 40.0037 36.3599 40.1633 36.3599C40.3229 36.3599 40.4592 36.2465 40.4891 36.0897L41.3767 31.556C41.39 31.4826 41.3801 31.4092 41.3468 31.3425L40.4592 29.5443C40.4027 29.4309 40.2863 29.3575 40.16 29.3575C40.0336 29.3575 39.9173 29.4309 39.8608 29.5443L38.9731 31.3425C38.9399 31.4092 38.9299 31.4826 38.9432 31.556L39.8375 36.0897ZM40.1633 30.445L40.7019 31.5393L40.1633 34.2949L39.6247 31.5393L40.1633 30.445Z" fill="#A28C41"/>
<path d="M40.1633 26.9388C40.406 26.9388 40.5988 26.742 40.5988 26.5018C40.5988 26.2583 40.4027 26.0648 40.1633 26.0648C39.9206 26.0648 39.7278 26.2616 39.7278 26.5018C39.7245 26.742 39.9206 26.9388 40.1633 26.9388Z" fill="#A28C41"/>
<path d="M40.1633 28.5769C40.406 28.5769 40.5988 28.38 40.5988 28.1398C40.5988 27.8963 40.4027 27.7028 40.1633 27.7028C39.9206 27.7028 39.7278 27.8996 39.7278 28.1398C39.7245 28.38 39.9206 28.5769 40.1633 28.5769Z" fill="#A28C41"/>
<path d="M36.4234 20.2733C36.4533 20.4301 36.5897 20.5436 36.7492 20.5436C36.9088 20.5436 37.0451 20.4301 37.075 20.2733L37.9627 15.7396C37.976 15.6662 37.966 15.5928 37.9328 15.5261L37.0451 13.728C36.9886 13.6145 36.8722 13.5411 36.7459 13.5411C36.6196 13.5411 36.5032 13.6145 36.4467 13.728L35.5591 15.5261C35.5258 15.5928 35.5158 15.6662 35.5291 15.7396L36.4234 20.2733ZM36.7492 14.6287L37.2878 15.7229L36.7492 18.4785L36.2107 15.7229L36.7492 14.6287Z" fill="#A28C41"/>
<path d="M36.749 8.01327C36.9895 8.01327 37.1845 7.81761 37.1845 7.57625C37.1845 7.33488 36.9895 7.13922 36.749 7.13922C36.5085 7.13922 36.3135 7.33488 36.3135 7.57625C36.3135 7.81761 36.5085 8.01327 36.749 8.01327Z" fill="#A28C41"/>
<path d="M36.749 9.65463C36.9917 9.65463 37.1845 9.4578 37.1845 9.21761C37.1845 8.97407 36.9884 8.78058 36.749 8.78058C36.5063 8.78058 36.3135 8.97741 36.3135 9.21761C36.3102 9.4578 36.5063 9.65463 36.749 9.65463Z" fill="#A28C41"/>
<path d="M36.749 11.1225C36.9917 11.1225 37.1845 10.9257 37.1845 10.6855C37.1845 10.442 36.9884 10.2485 36.749 10.2485C36.5063 10.2485 36.3135 10.4453 36.3135 10.6855C36.3102 10.9257 36.5063 11.1225 36.749 11.1225Z" fill="#A28C41"/>
<path d="M36.749 12.7605C36.9917 12.7605 37.1845 12.5637 37.1845 12.3235C37.1845 12.08 36.9884 11.8865 36.749 11.8865C36.5063 11.8865 36.3135 12.0833 36.3135 12.3235C36.3102 12.567 36.5063 12.7605 36.749 12.7605Z" fill="#A28C41"/>
<path d="M28.8035 4.29021C29.023 4.33692 29.3853 4.43367 29.5881 4.64384C29.7676 4.83066 29.8574 5.29104 29.9006 5.57794C29.9073 5.61797 29.9671 5.62131 29.9738 5.57794C30.0236 5.29104 30.1167 4.83066 30.2996 4.6405C30.4924 4.44367 30.8248 4.34359 31.0343 4.29355C31.0709 4.28354 31.0709 4.23016 31.0343 4.22349C30.8381 4.18346 30.5456 4.10339 30.3727 3.95661C30.13 3.74643 30.017 3.12259 29.9671 2.77897C29.9605 2.73894 29.9006 2.7356 29.894 2.77897C29.8375 3.11591 29.7278 3.7064 29.5117 3.90656C29.3321 4.07337 29.0097 4.16678 28.8002 4.21682C28.7636 4.22683 28.7636 4.28354 28.8035 4.29021Z" fill="#A28C41"/>
<path d="M29.9206 11.4961C29.6779 11.4961 29.4851 11.6929 29.4851 11.9331C29.4851 12.1767 29.6813 12.3701 29.9206 12.3701C30.1633 12.3701 30.3561 12.1733 30.3561 11.9331C30.3561 11.6929 30.1633 11.4961 29.9206 11.4961Z" fill="#A28C41"/>
<path d="M29.9206 13.1375C29.6779 13.1375 29.4851 13.3343 29.4851 13.5745C29.4851 13.818 29.6813 14.0115 29.9206 14.0115C30.1633 14.0115 30.3561 13.8147 30.3561 13.5745C30.3561 13.3309 30.1633 13.1375 29.9206 13.1375Z" fill="#A28C41"/>
<path d="M29.9372 9.52118C29.6114 9.52118 29.3455 9.78807 29.3455 10.115C29.3455 10.4419 29.6114 10.7088 29.9372 10.7088C30.263 10.7088 30.529 10.4419 30.529 10.115C30.5257 9.78473 30.263 9.52118 29.9372 9.52118Z" fill="#A28C41"/>
<path d="M29.937 8.71384C30.1797 8.71384 30.3725 8.51701 30.3725 8.27681C30.3725 8.03328 30.1764 7.83978 29.937 7.83978C29.6943 7.83978 29.5015 8.03661 29.5015 8.27681C29.4982 8.51701 29.6943 8.71384 29.937 8.71384Z" fill="#A28C41"/>
<path d="M29.937 6.87564C30.1797 6.87564 30.3725 6.67881 30.3725 6.43861C30.3725 6.19508 30.1764 6.00159 29.937 6.00159C29.6943 6.00159 29.5015 6.19842 29.5015 6.43861C29.4982 6.67881 29.6943 6.87564 29.937 6.87564Z" fill="#A28C41"/>
<path d="M29.6179 21.1708C29.6611 21.3109 29.7908 21.4077 29.9371 21.4077C30.0834 21.4077 30.213 21.3109 30.2562 21.1708L31.5495 16.8706C31.5794 16.7672 31.5594 16.6571 31.4963 16.5737L30.203 14.8689C30.1399 14.7855 30.0435 14.7388 29.9371 14.7388C29.834 14.7388 29.7343 14.7889 29.6711 14.8689L28.3779 16.5737C28.3147 16.6571 28.2948 16.7705 28.3247 16.8706L29.6179 21.1708ZM29.9371 15.6196L30.8613 16.8406L29.9371 19.9198L29.0129 16.8406L29.9371 15.6196Z" fill="#A28C41"/>
</g>
<defs>
<clipPath id="clip0_448_11510">
<rect width="59" height="85" fill="white"/>
</clipPath>
</defs>
</svg>
