<svg width="47" height="109" viewBox="0 0 47 109" fill="none" xmlns="http://www.w3.org/2000/svg">
<g clip-path="url(#clip0_448_11415)">
<path d="M22.3565 26.4073C22.3536 26.5442 22.4451 26.6611 22.5766 26.6953C24.1974 27.1031 27.2675 28.221 29.6372 31.1355C29.6543 31.1555 30.7892 32.5756 31.6382 34.8171H21.7533L21.6247 34.2924C21.6247 34.2896 21.6219 34.2839 21.6219 34.281C21.619 34.2724 21.6161 34.2639 21.6133 34.2553C21.6104 34.2468 21.6047 34.2382 21.6018 34.2297C21.599 34.2211 21.5933 34.2126 21.5876 34.2069C21.5818 34.1983 21.5761 34.1926 21.5704 34.184C21.5647 34.1755 21.559 34.1698 21.5533 34.1641C21.5475 34.1584 21.539 34.1527 21.5332 34.1441C21.5247 34.1384 21.5189 34.1327 21.5104 34.127C21.5075 34.1242 21.5047 34.1213 21.4989 34.1184L17.9601 31.8513C17.9601 31.8513 17.9572 31.8513 17.9572 31.8484C17.9429 31.8399 17.9286 31.8313 17.9115 31.8256C17.9086 31.8256 17.9058 31.8228 17.9029 31.8228C17.8829 31.8171 17.8657 31.8114 17.8457 31.8085C17.8429 31.8085 17.84 31.8085 17.8372 31.8085C17.82 31.8057 17.8057 31.8057 17.7886 31.8057C17.7886 31.8057 17.7886 31.8057 17.7857 31.8057C17.7771 31.8057 17.7714 31.8085 17.7628 31.8085C17.7514 31.8114 17.7371 31.8114 17.7257 31.8142H17.7228C17.7171 31.8171 17.7114 31.8199 17.7057 31.8199C17.6942 31.8256 17.6799 31.8285 17.6685 31.8342C17.6628 31.837 17.6542 31.8427 17.6485 31.8456C17.6371 31.8513 17.6285 31.857 17.6199 31.8656C17.6142 31.8713 17.6085 31.877 17.6028 31.8827C17.5942 31.8912 17.5856 31.8969 17.5799 31.9055C17.5742 31.9112 17.5685 31.9197 17.5656 31.9254C17.5599 31.934 17.5513 31.9454 17.5484 31.954C17.5456 31.9568 17.5427 31.9597 17.5427 31.9625L16.1306 34.8114H11.0253C10.9224 34.8114 10.828 34.8628 10.7766 34.9512C10.7223 35.0367 10.7194 35.1451 10.7651 35.2363L15.2559 44.1823L16.3907 51.0893C16.3936 51.1007 16.3965 51.1092 16.3993 51.1206C16.4022 51.1264 16.4022 51.1349 16.405 51.1406C16.4107 51.1577 16.4193 51.1748 16.4279 51.1891C16.4279 51.1919 16.4308 51.1919 16.4308 51.1948C16.4393 51.2091 16.4479 51.2205 16.4593 51.2319C16.4622 51.2376 16.4679 51.2404 16.4736 51.2461C16.4822 51.2547 16.4879 51.2604 16.4965 51.2689L20.387 54.4059L23.2369 60.0866C23.2855 60.1864 23.3884 60.2491 23.4999 60.2491C23.6114 60.2491 23.7114 60.1864 23.7629 60.0866L25.761 56.1055C29.4399 56.0171 32.8845 54.4487 35.4915 51.6682C38.1728 48.8079 39.6478 45.0093 39.6478 40.9655C39.6478 36.9246 38.1728 33.1232 35.4915 30.2629C32.8073 27.3968 29.2341 25.8198 25.4351 25.8198C24.4775 25.8198 23.5199 25.9225 22.588 26.125C22.4537 26.1563 22.3594 26.2733 22.3565 26.4073ZM31.8497 35.4017H32.47H35.5L33.1389 40.1014L32.6558 41.0653L32.5129 40.7545L31.6353 38.8609C31.6296 38.8495 31.6267 38.841 31.621 38.8324C31.621 38.8324 31.621 38.8324 31.621 38.8296C31.6124 38.8153 31.6039 38.8039 31.5924 38.7896C31.5896 38.7868 31.5867 38.7839 31.5867 38.7811C31.5753 38.7697 31.5638 38.7583 31.5495 38.7497C31.5467 38.7469 31.5438 38.7469 31.541 38.744C31.5267 38.7355 31.5124 38.724 31.4952 38.7183C31.4952 38.7183 31.4952 38.7183 31.4924 38.7183H31.4895C31.4724 38.7126 31.4581 38.7069 31.4409 38.7012H31.4381L27.8935 37.9198C27.8906 37.9198 27.8849 37.9198 27.882 37.917C27.8735 37.917 27.8678 37.9141 27.8592 37.9141C27.8477 37.9141 27.8392 37.9113 27.8277 37.9113C27.8192 37.9113 27.8134 37.9113 27.8049 37.9113C27.7934 37.9113 27.782 37.9141 27.7734 37.917C27.7677 37.917 27.7591 37.9198 27.7534 37.9198C27.742 37.9227 27.7305 37.9284 27.7191 37.9313C27.7134 37.9341 27.7077 37.9341 27.7048 37.937H27.702L24.4832 39.5168C24.4804 39.5168 24.4804 39.5197 24.4775 39.5197C24.4747 39.5225 24.469 39.5254 24.4661 39.5282C24.4547 39.5339 24.4432 39.5425 24.4347 39.5482C24.4318 39.5511 24.4261 39.5539 24.4232 39.5568C24.4118 39.5682 24.3975 39.5796 24.3889 39.591C24.3861 39.5938 24.3861 39.5938 24.3832 39.5967C24.3775 39.6052 24.3718 39.6138 24.366 39.6223L23.337 41.2479L21.902 35.396H31.8497V35.4017ZM26.0269 54.2718L25.1922 54.0323L24.5747 53.8555L24.5947 53.7585L25.378 49.9742C25.3808 49.9685 25.3837 49.9657 25.3865 49.96L27.5562 45.1148L30.2746 45.5711L30.0545 46.2498L29.4457 48.112L29.1084 49.1501L28.8397 49.9742L28.591 50.7357L27.3189 54.6369L26.6014 54.4315L26.3156 54.3488L26.0269 54.2718ZM22.1049 51.691L22.9454 54.9734L23.0511 55.384L22.8081 55.0675L20.1183 51.5627L22.1049 51.691ZM19.7409 50.9495L18.2574 42.4513L20.65 45.9932L21.9563 51.095L19.7409 50.9495ZM22.6738 51.5399L23.1826 51.2461L23.4485 51.0921L23.7172 50.9381L24.7034 50.3678L24.1831 52.8773L24.0573 53.4905L23.9344 54.0808L23.8887 54.3061L23.7114 55.1559L23.6628 55.3954L23.6171 55.2215L23.4628 54.6141L22.6738 51.5399ZM24.9949 43.1557L27.0245 44.8724L25.2093 48.9248L24.2031 44.824L24.9949 43.1557ZM23.9859 43.92L23.5256 42.0406L24.4004 40.6575L24.5947 42.6338L23.9859 43.92ZM29.8173 41.6699L27.9821 42.5768L27.2332 40.6832L28.0135 38.5415L30.9521 39.1917L29.8173 41.6699ZM30.2804 44.9808L27.742 44.5559L28.0764 43.1842L29.8173 42.323L30.2804 44.9808ZM27.519 43.0017L27.2103 44.2622L25.3265 42.6709L26.8101 41.2079L27.519 43.0017ZM26.6643 40.5264L25.1236 42.0463L24.9177 39.9532L27.2989 38.7839L26.6643 40.5264ZM29.6372 49.4181L30.3232 47.3135L30.5977 46.4751L30.9035 45.5398L31.0865 45.5055L31.2694 45.4713L31.9612 45.3401L33.4648 45.0521L29.3056 53.2823L28.0793 54.2063L29.6372 49.4181ZM32.2099 44.6956L31.5352 44.824L31.4123 44.8468L31.0493 44.9152L30.8664 44.9494L30.8235 44.7099L30.3404 41.9237L31.3666 39.6822L32.3156 41.7327L32.3671 41.8439L32.4728 42.072L32.6301 42.4114L32.7844 42.745L33.5648 44.4333L32.2099 44.6956ZM22.9111 42.0064L23.1026 42.7878L23.3113 43.6376L24.7834 49.6434L23.6028 50.3279L23.3313 50.4847L23.0626 50.6416L22.5223 50.9552L21.2102 45.8306L20.6728 37.9683L21.3246 35.5443L22.9111 42.0064ZM21.0016 34.4949L20.9158 34.82L20.8358 35.1109L20.7557 35.4046L20.1411 37.6917L18.3746 38.1052L18.2488 35.4017L18.2345 35.108L18.2202 34.8171L18.1202 32.6498L21.0016 34.4949ZM18.3603 38.7069L20.1097 38.2963L20.5556 44.804L18.0401 41.0796L18.3603 38.7069ZM16.4908 35.4017L16.6366 35.108L16.7824 34.8171L17.5627 33.2401L17.6371 34.8171L17.6514 35.108L17.6656 35.4017L17.8086 38.456L17.5199 40.5834L14.9901 38.4417L16.4908 35.4017ZM11.4998 35.4017H15.8362L14.3555 38.3847C14.3497 38.3961 14.344 38.4103 14.3412 38.4218C14.3412 38.4246 14.3412 38.4246 14.3383 38.4275C14.3326 38.4446 14.3297 38.4588 14.3269 38.4759C14.3269 38.4816 14.3269 38.4873 14.3269 38.493C14.3269 38.5045 14.3269 38.5159 14.3269 38.5273C14.3269 38.533 14.3269 38.5387 14.3297 38.5444C14.3297 38.5501 14.3297 38.5529 14.3297 38.5586L14.9357 42.2403L11.4998 35.4017ZM16.1392 45.9476L15.9791 44.9751L15.819 44.0055L15.0387 39.2545L17.4627 41.3077L19.0606 50.4647L19.1378 50.9153L18.952 50.9039L18.6118 50.8811L16.9281 50.7727L16.1392 45.9476ZM20.3041 53.5903L19.7524 53.1454L17.5827 51.3944L18.9177 51.48L19.255 51.5028L19.3379 51.5085L20.0525 52.4382L21.962 54.9278L20.8501 54.0323L20.3041 53.5903ZM25.398 55.5266L25.1064 56.1084L23.5028 59.3052L21.4904 55.2956L23.5056 56.9211C23.5171 56.9297 23.5285 56.9382 23.5428 56.9468C23.5456 56.9497 23.5485 56.9497 23.5514 56.9525C23.5657 56.9582 23.5771 56.9668 23.5914 56.9696C23.6057 56.9753 23.62 56.9782 23.6343 56.981C23.6371 56.981 23.64 56.981 23.6457 56.9839C23.66 56.9867 23.6743 56.9867 23.6886 56.9867C23.7029 56.9867 23.7172 56.9839 23.7343 56.9839C23.7372 56.9839 23.74 56.9839 23.7429 56.981C23.7572 56.9782 23.7715 56.9753 23.7858 56.9696C23.7886 56.9696 23.7886 56.9668 23.7915 56.9668C23.8001 56.9639 23.8086 56.9611 23.8144 56.9582H23.8172C23.8315 56.9525 23.8429 56.9439 23.8572 56.9354C23.8601 56.9325 23.8629 56.9297 23.8658 56.9268C23.8744 56.9211 23.883 56.9126 23.8915 56.904C23.8944 56.9012 23.8972 56.8983 23.903 56.8926C23.9115 56.8841 23.9173 56.8755 23.9258 56.8641C23.9287 56.8612 23.9287 56.8584 23.9316 56.8584C23.9401 56.847 23.9458 56.8327 23.9544 56.8213C23.9573 56.8185 23.9573 56.8156 23.9601 56.8099C23.9659 56.7985 23.9687 56.79 23.9716 56.7785C23.9716 56.7728 23.9744 56.77 23.9744 56.7643C23.9744 56.7614 23.9773 56.7586 23.9773 56.7529L24.1231 56.0456L24.2431 55.4696L24.4146 54.6369L24.4575 54.4287L24.6262 54.4772L25.761 54.8023L25.398 55.5266ZM25.4351 26.4073C32.9502 26.4073 39.0618 32.9378 39.0618 40.9684C39.0618 48.7737 33.2847 55.1616 26.0612 55.5124L26.3356 54.9677L27.4304 55.2814C27.439 55.2842 27.4447 55.2842 27.4533 55.2871C27.459 55.2871 27.4647 55.2899 27.4676 55.2899C27.479 55.2928 27.4904 55.2928 27.5019 55.2928C27.5047 55.2928 27.5076 55.2928 27.5104 55.2928C27.5276 55.2928 27.5419 55.2928 27.5562 55.2899H27.559C27.5733 55.2871 27.5876 55.2842 27.6019 55.2785C27.6076 55.2757 27.6105 55.2757 27.6162 55.2728C27.6248 55.27 27.6362 55.2643 27.6448 55.2614C27.6505 55.2586 27.6562 55.2557 27.6591 55.2529C27.6677 55.2471 27.6762 55.2443 27.6848 55.2386C27.6848 55.2386 27.6877 55.2386 27.6877 55.2357L29.7144 53.71C29.7515 53.6844 29.7801 53.6473 29.8001 53.6074L34.2594 44.784C34.2623 44.7812 34.2623 44.7755 34.2652 44.7726C34.2652 44.7698 34.268 44.7669 34.268 44.7641C34.2737 44.7498 34.2794 44.7327 34.2823 44.7184C34.2823 44.7156 34.2823 44.7127 34.2852 44.7099C34.288 44.6928 34.2909 44.6757 34.2909 44.6586V44.6557C34.2909 44.6386 34.288 44.6215 34.2852 44.6015V44.5987C34.2852 44.5987 34.2852 44.5987 34.2852 44.5958C34.2823 44.5787 34.2766 44.5616 34.2709 44.5473C34.2709 44.5445 34.268 44.5416 34.268 44.5388C34.268 44.5359 34.2652 44.5331 34.2652 44.5331L32.9845 41.7669C32.9874 41.7498 32.9902 41.7355 32.9931 41.7184L36.2433 35.2449C36.289 35.1536 36.2833 35.0453 36.2318 34.9597C36.1775 34.8742 36.0832 34.82 35.9831 34.82H32.2728C31.3952 32.3988 30.1689 30.8617 30.0945 30.7705C28.125 28.3522 25.6981 27.1174 23.9344 26.4985C24.4318 26.4387 24.932 26.4073 25.4351 26.4073Z" fill="#A28C41"/>
<path d="M17.2798 28.3722C17.4571 28.5575 17.5457 29.011 17.5885 29.2933C17.5943 29.3332 17.6543 29.3332 17.66 29.2933C17.7086 29.011 17.8001 28.5547 17.983 28.3693C18.1745 28.1726 18.5033 28.0756 18.7148 28.0271C18.752 28.0186 18.752 27.9644 18.7148 27.9558C18.5204 27.9159 18.2289 27.8389 18.0602 27.6935C17.8201 27.4853 17.7086 26.8722 17.66 26.5328C17.6543 26.4929 17.5943 26.49 17.5885 26.5328C17.5314 26.8636 17.4228 27.4482 17.2112 27.645C17.034 27.8104 16.711 27.9016 16.5052 27.9501C16.468 27.9587 16.468 28.0129 16.5052 28.0214C16.7196 28.0699 17.0797 28.1669 17.2798 28.3722Z" fill="#A28C41"/>
<path d="M12.4346 32.0481C12.6118 32.2334 12.7005 32.6869 12.7433 32.9692C12.7491 33.0091 12.8091 33.0091 12.8148 32.9692C12.8634 32.6869 12.9549 32.2306 13.1378 32.0452C13.3293 31.8485 13.6581 31.7515 13.8696 31.703C13.9068 31.6945 13.9068 31.6403 13.8696 31.6317C13.6752 31.5918 13.3836 31.5148 13.215 31.3694C12.9749 31.1612 12.8634 30.5481 12.8148 30.2087C12.8091 30.1688 12.7491 30.1659 12.7433 30.2087C12.6862 30.5395 12.5775 31.1241 12.366 31.3209C12.1888 31.4863 11.8658 31.5775 11.66 31.6289C11.6228 31.6374 11.6228 31.6916 11.66 31.7002C11.8743 31.7429 12.2345 31.8399 12.4346 32.0481Z" fill="#A28C41"/>
<path d="M10.9968 44.9124C10.8024 44.8724 10.5108 44.7954 10.3422 44.65C10.1021 44.4418 9.99059 43.8287 9.942 43.4893C9.93628 43.4494 9.87625 43.4466 9.87053 43.4893C9.81336 43.8201 9.70474 44.4047 9.49321 44.6015C9.31598 44.7669 8.99296 44.8582 8.78715 44.9067C8.74999 44.9152 8.74999 44.9694 8.78715 44.978C9.00726 45.0236 9.36743 45.1205 9.56753 45.3259C9.74476 45.5112 9.83337 45.9647 9.87625 46.247C9.88197 46.2869 9.942 46.2869 9.94771 46.247C9.99631 45.9647 10.0878 45.5084 10.2707 45.323C10.4622 45.1262 10.791 45.0293 11.0025 44.9808C11.0368 44.9751 11.0368 44.9209 10.9968 44.9124Z" fill="#A28C41"/>
<path d="M14.3957 51.8251C14.2013 51.7851 13.9098 51.7081 13.7411 51.5627C13.501 51.3545 13.3895 50.7414 13.3409 50.402C13.3352 50.3621 13.2752 50.3592 13.2695 50.402C13.2123 50.7328 13.1037 51.3174 12.8921 51.5142C12.7149 51.6796 12.3919 51.7709 12.1861 51.8194C12.1489 51.8279 12.1489 51.8821 12.1861 51.8906C12.4062 51.9363 12.7664 52.0332 12.9665 52.2386C13.1437 52.4239 13.2323 52.8774 13.2752 53.1597C13.2809 53.1996 13.3409 53.1996 13.3466 53.1597C13.3952 52.8774 13.4867 52.4211 13.6697 52.2357C13.8612 52.0389 14.1899 51.942 14.4014 51.8935C14.4357 51.8849 14.4329 51.8308 14.3957 51.8251Z" fill="#A28C41"/>
<path d="M15.5991 53.4734C15.2218 53.4734 14.9131 53.7785 14.9131 54.1578C14.9131 54.5342 15.2189 54.8422 15.5991 54.8422C15.9765 54.8422 16.2852 54.5371 16.2852 54.1578C16.2852 53.7785 15.9793 53.4734 15.5991 53.4734Z" fill="#A28C41"/>
<path d="M18.7835 54.8422C18.4061 54.8422 18.0974 55.1474 18.0974 55.5266C18.0974 55.9031 18.4033 56.2111 18.7835 56.2111C19.1608 56.2111 19.4695 55.9059 19.4695 55.5266C19.4695 55.1474 19.1608 54.8422 18.7835 54.8422Z" fill="#A28C41"/>
<path d="M11.2627 48.0379C10.8854 48.0379 10.5767 48.343 10.5767 48.7223C10.5767 49.0988 10.8825 49.4067 11.2627 49.4067C11.64 49.4067 11.9488 49.1016 11.9488 48.7223C11.9488 48.3459 11.64 48.0379 11.2627 48.0379Z" fill="#A28C41"/>
<path d="M8.75562 40.9313C8.75562 41.3077 9.06148 41.6157 9.44166 41.6157C9.81899 41.6157 10.1277 41.3106 10.1277 40.9313C10.1277 40.5549 9.82185 40.2469 9.44166 40.2469C9.06148 40.2469 8.75562 40.552 8.75562 40.9313Z" fill="#A28C41"/>
<path d="M10.5767 37.5178C10.5767 37.1413 10.2708 36.8333 9.89064 36.8333C9.51331 36.8333 9.20459 37.1385 9.20459 37.5178C9.20459 37.8942 9.51045 38.2022 9.89064 38.2022C10.2708 38.2022 10.5767 37.8942 10.5767 37.5178Z" fill="#A28C41"/>
<path d="M15.2674 29.4929C15.2674 29.1165 14.9615 28.8085 14.5813 28.8085C14.204 28.8085 13.8953 29.1136 13.8953 29.4929C13.8953 29.8693 14.2011 30.1773 14.5813 30.1773C14.9615 30.1773 15.2674 29.8722 15.2674 29.4929Z" fill="#A28C41"/>
<path d="M21.2588 26.8009C21.2588 26.4244 20.953 26.1164 20.5728 26.1164C20.1954 26.1164 19.8867 26.4216 19.8867 26.8009C19.8867 27.1773 20.1926 27.4853 20.5728 27.4853C20.953 27.4853 21.2588 27.1773 21.2588 26.8009Z" fill="#A28C41"/>
<path d="M0 41.2707C0 44.4361 0.620302 47.5046 1.84661 50.3963C3.03005 53.1882 4.72515 55.6949 6.88335 57.848C7.8238 58.7862 8.83287 59.636 9.90196 60.3946V64.1133C9.90196 64.139 9.90767 64.1618 9.91625 64.1846C8.6442 64.4241 7.91814 64.7007 7.91814 64.9916V69.4375C7.91814 70.3501 14.893 71.0887 23.5 71.0887C32.107 71.0887 39.0819 70.3501 39.0819 69.4375V64.9916C39.0819 64.6979 38.3558 64.4213 37.0837 64.1846C37.0923 64.1618 37.098 64.1361 37.098 64.1133V60.3946C38.1671 59.636 39.1762 58.7862 40.1166 57.848C42.2748 55.6949 43.97 53.1882 45.1534 50.3963C46.3797 47.5046 47 44.4361 47 41.2707C47 38.1052 46.3797 35.0367 45.1534 32.145C43.97 29.3532 42.2748 26.8465 40.1166 24.6934C37.9585 22.5403 35.4458 20.8492 32.6473 19.6686C29.7488 18.4452 26.673 17.8264 23.5 17.8264C20.327 17.8264 17.2512 18.4452 14.3527 19.6686C11.5542 20.8492 9.04154 22.5403 6.88335 24.6934C4.72515 26.8465 3.03005 29.3532 1.84661 32.145C0.620302 35.0367 0 38.1052 0 41.2707ZM28.5339 66.851C26.9188 66.908 25.2237 66.9394 23.5029 66.9394C16.9997 66.9394 11.0968 66.5031 8.81572 65.8529C8.66136 65.8072 8.56988 65.6475 8.61562 65.4907C8.61562 65.4878 8.61848 65.485 8.61848 65.485C8.66707 65.3338 8.82429 65.2483 8.97865 65.2911C11.214 65.927 17.0511 66.3548 23.5057 66.3548C25.2208 66.3548 26.9074 66.3262 28.5167 66.2664C28.6797 66.2607 28.814 66.3861 28.8197 66.5487C28.8197 66.7112 28.694 66.8453 28.5339 66.851ZM30.9665 66.7369C30.5434 66.7626 30.1004 66.7854 29.6516 66.8053C29.6458 66.8053 29.643 66.8053 29.6373 66.8053C29.4829 66.8053 29.3514 66.6827 29.3457 66.5259C29.34 66.3662 29.4629 66.2293 29.6258 66.2207C30.0718 66.2008 30.5091 66.178 30.9322 66.1523C31.0923 66.1437 31.2323 66.2664 31.2409 66.4261C31.2523 66.5915 31.1294 66.7284 30.9665 66.7369ZM38.2472 65.2255C38.3958 65.177 38.5588 65.254 38.6131 65.4023C38.6131 65.4051 38.6159 65.408 38.6188 65.4137C38.6702 65.5677 38.5873 65.7331 38.433 65.7816C37.4525 66.1038 35.6087 66.3861 33.1018 66.5915C33.0932 66.5915 33.0847 66.5915 33.0761 66.5915C32.9246 66.5915 32.7959 66.4774 32.7845 66.3234C32.7702 66.1637 32.8903 66.0211 33.0532 66.0097C35.4773 65.8072 37.3239 65.5278 38.2472 65.2255ZM23.5 18.411C36.1347 18.411 46.414 28.6659 46.414 41.2707C46.414 49.4866 42.049 56.7016 35.5087 60.7311C33.2219 61.253 28.7025 61.6066 23.5 61.6066C18.2975 61.6066 13.7753 61.253 11.4913 60.7311C4.95384 56.7016 0.585999 49.4838 0.585999 41.2707C0.585999 28.6659 10.8653 18.411 23.5 18.411Z" fill="#A28C41"/>
<path d="M4.82797 32.5557C4.86799 32.5757 4.91373 32.5842 4.9566 32.5842C5.06523 32.5842 5.17099 32.5243 5.21959 32.4188C8.65269 25.3778 15.6561 21.0032 23.4999 21.0032C23.8629 21.0032 24.2288 21.0118 24.5919 21.0317C24.7548 21.0403 24.892 20.9177 24.9006 20.7551C24.9092 20.5926 24.7862 20.4557 24.6233 20.4471C24.2517 20.4272 23.8744 20.4186 23.5028 20.4186C19.5065 20.4186 15.6218 21.5479 12.2687 23.6839C9.00429 25.7628 6.38587 28.6944 4.69648 32.1622C4.62215 32.3105 4.68504 32.4844 4.82797 32.5557Z" fill="#A28C41"/>
<path d="M2.89283 40.9541C2.89569 40.9541 2.89855 40.9541 2.90141 40.9541C3.05863 40.9541 3.19012 40.8287 3.19298 40.669C3.21299 39.956 3.27302 39.2402 3.36735 38.5416C3.39022 38.3819 3.27588 38.2336 3.1158 38.2136C2.95572 38.1908 2.80708 38.3049 2.78707 38.4646C2.68988 39.1861 2.62985 39.9218 2.60698 40.6547C2.60412 40.8144 2.73276 40.9484 2.89283 40.9541Z" fill="#A28C41"/>
<path d="M2.96139 42.9846C2.80132 42.9988 2.68126 43.1443 2.69841 43.304C2.80418 44.3933 2.9957 45.4799 3.27297 46.535C3.30728 46.6662 3.42734 46.7546 3.55597 46.7546C3.5817 46.7546 3.60456 46.7518 3.63029 46.7461C3.78751 46.7061 3.88184 46.5464 3.83896 46.3896C3.57312 45.3658 3.38446 44.3078 3.28155 43.2498C3.26726 43.0872 3.12147 42.9703 2.96139 42.9846Z" fill="#A28C41"/>
<path d="M35.7974 57.4031C35.6688 57.5001 35.643 57.6854 35.7431 57.8138C35.8003 57.8879 35.8889 57.9278 35.9775 57.9278C36.0404 57.9278 36.1004 57.9079 36.1547 57.8679C37.9042 56.539 39.4278 54.9506 40.6826 53.1511C41.9547 51.3231 42.918 49.3212 43.5498 47.1938C43.5955 47.0398 43.5069 46.8773 43.3525 46.8316C43.1982 46.786 43.0352 46.8744 42.9895 47.0284C41.7717 51.1207 39.2191 54.8051 35.7974 57.4031Z" fill="#A28C41"/>
<path d="M43.8156 41.2707C43.8156 41.7669 43.7985 42.266 43.7613 42.7565C43.7499 42.9162 43.8699 43.0587 44.0329 43.0701C44.0414 43.0701 44.0471 43.0701 44.0557 43.0701C44.2072 43.0701 44.3359 42.9532 44.3473 42.7992C44.3845 42.2945 44.4016 41.7783 44.4016 41.2707C44.4016 40.3638 44.3416 39.4513 44.2272 38.5587C44.2072 38.399 44.0586 38.2849 43.8985 38.3077C43.7384 38.3277 43.6241 38.476 43.647 38.6357C43.7584 39.5026 43.8156 40.3895 43.8156 41.2707Z" fill="#A28C41"/>
<path d="M25.2237 106.853C24.8978 106.773 24.3947 106.63 24.1174 106.374C23.7858 106.063 23.6143 105.147 23.5257 104.631C23.5143 104.568 23.4228 104.568 23.4142 104.631C23.337 105.162 23.1627 106.123 22.7853 106.451C22.5195 106.679 22.065 106.798 21.7591 106.864C21.6991 106.875 21.6991 106.961 21.7591 106.975C22.0879 107.052 22.6024 107.206 22.9025 107.511C23.1855 107.799 23.3313 108.512 23.4056 108.957C23.4171 109.02 23.5086 109.02 23.5171 108.957C23.5857 108.515 23.7229 107.802 24.0031 107.514C24.3147 107.189 24.8806 107.038 25.2237 106.967C25.2808 106.95 25.2837 106.867 25.2237 106.853Z" fill="#A28C41"/>
<path d="M23.5 78.8654C24.166 78.8654 24.7063 78.3265 24.7063 77.662C24.7063 76.9975 24.166 76.4586 23.5 76.4586C22.834 76.4586 22.2937 76.9975 22.2937 77.662C22.2966 78.3265 22.834 78.8654 23.5 78.8654Z" fill="#A28C41"/>
<path d="M24.7063 102.464C24.7063 101.799 24.166 101.26 23.5 101.26C22.834 101.26 22.2937 101.799 22.2937 102.464C22.2937 103.128 22.834 103.667 23.5 103.667C24.166 103.667 24.7063 103.128 24.7063 102.464Z" fill="#A28C41"/>
<path d="M23.5 83.4996C24.3718 83.4996 25.0807 82.7952 25.0807 81.9225C25.0807 81.0528 24.3747 80.3455 23.5 80.3455C22.6281 80.3455 21.9192 81.0499 21.9192 81.9225C21.922 82.7952 22.6281 83.4996 23.5 83.4996Z" fill="#A28C41"/>
<path d="M23.5 96.592C22.6281 96.592 21.9192 97.2964 21.9192 98.169C21.9192 99.0388 22.6252 99.746 23.5 99.746C24.3718 99.746 25.0807 99.0416 25.0807 98.169C25.0807 97.2992 24.3718 96.592 23.5 96.592Z" fill="#A28C41"/>
<path d="M23.5 75.1895C23.9717 75.1895 24.3519 74.8102 24.3519 74.3397C24.3519 73.8691 23.9717 73.4899 23.5 73.4899C23.0284 73.4899 22.6482 73.8691 22.6482 74.3397C22.6482 74.8102 23.0312 75.1895 23.5 75.1895Z" fill="#A28C41"/>
<path d="M36.2005 75.0298C36.1748 74.9044 36.0633 74.8131 35.9347 74.8131C35.8061 74.8131 35.6946 74.9044 35.6688 75.0298C34.4826 80.7505 29.3658 84.8998 23.5029 84.8998C17.6401 84.8998 12.5233 80.7476 11.337 75.0298C11.3113 74.9044 11.1998 74.8131 11.0712 74.8131C10.9425 74.8131 10.831 74.9044 10.8053 75.0298C10.6252 75.8911 10.5366 76.778 10.5366 77.6649C10.5366 81.1212 11.8858 84.3694 14.3356 86.8133C16.7854 89.2573 20.0412 90.6033 23.5058 90.6033C26.9703 90.6033 30.2262 89.2573 32.676 86.8133C35.1257 84.3694 36.4749 81.1212 36.4749 77.6649C36.4692 76.778 36.3778 75.8911 36.2005 75.0298ZM23.5001 90.0586C16.6482 90.0586 11.074 84.4977 11.074 77.662C11.074 77.2457 11.094 76.8322 11.1369 76.4187C11.8916 78.7799 13.3237 80.9045 15.2618 82.4929C17.5743 84.3922 20.5015 85.4388 23.5001 85.4388C26.5015 85.4388 29.4258 84.3922 31.7384 82.4929C33.6736 80.9016 35.1086 78.7799 35.8632 76.4187C35.9032 76.8322 35.9261 77.2457 35.9261 77.662C35.9261 84.4977 30.352 90.0586 23.5001 90.0586Z" fill="#A28C41"/>
<path d="M23.5 85.9863C18.5262 85.9863 14.044 83.24 11.7029 79.0765C12.0145 81.7087 13.1922 84.1412 15.0988 86.0433C17.3428 88.282 20.3271 89.5139 23.5 89.5139C26.673 89.5139 29.6573 88.282 31.9013 86.0433C33.8079 84.1412 34.9856 81.7058 35.2972 79.0765C32.9561 83.2372 28.4739 85.9863 23.5 85.9863Z" fill="#A28C41"/>
<path d="M7.69219 82.7495C7.71505 82.7495 7.73792 82.7467 7.76079 82.741L10.0991 82.1621C10.2506 82.125 10.342 81.9739 10.3049 81.8227C10.2677 81.6716 10.1162 81.5803 9.96472 81.6174L7.62644 82.1963C7.47494 82.2334 7.38346 82.3845 7.42062 82.5357C7.44921 82.664 7.56641 82.7495 7.69219 82.7495Z" fill="#A28C41"/>
<path d="M9.2274 86.3029L11.3427 85.1536C11.4799 85.0794 11.5285 84.9083 11.4542 84.7743C11.3799 84.6374 11.2084 84.5889 11.074 84.6631L8.9587 85.8123C8.82149 85.8865 8.7729 86.0576 8.84722 86.1916C8.89867 86.2857 8.99586 86.3371 9.09305 86.3371C9.13593 86.3371 9.18452 86.3257 9.2274 86.3029Z" fill="#A28C41"/>
<path d="M12.9576 87.3865L11.1968 89.0262C11.0824 89.1318 11.0767 89.3086 11.1825 89.4227C11.2368 89.4825 11.314 89.5111 11.3883 89.5111C11.4569 89.5111 11.5255 89.4854 11.5798 89.4369L13.3407 87.7971C13.455 87.6916 13.4608 87.5148 13.355 87.4007C13.2492 87.2867 13.072 87.281 12.9576 87.3865Z" fill="#A28C41"/>
<path d="M15.4133 89.5368L14.0898 91.5444C14.004 91.6727 14.0412 91.8467 14.1698 91.9322C14.2184 91.9636 14.2698 91.9779 14.3242 91.9779C14.4156 91.9779 14.5042 91.9322 14.5586 91.8524L15.8821 89.8447C15.9678 89.7164 15.9307 89.5425 15.802 89.4569C15.6705 89.3713 15.4962 89.4056 15.4133 89.5368Z" fill="#A28C41"/>
<path d="M17.823 93.7174C17.9373 93.7174 18.0459 93.6461 18.0888 93.532L18.9006 91.2706C18.9521 91.1251 18.8778 90.9655 18.732 90.9113C18.5862 90.8599 18.4261 90.9341 18.3718 91.0795L17.56 93.341C17.5085 93.4864 17.5829 93.6461 17.7286 93.7003C17.7601 93.7117 17.7915 93.7174 17.823 93.7174Z" fill="#A28C41"/>
<path d="M21.8592 91.6328C21.7049 91.6156 21.5648 91.724 21.5476 91.878L21.2732 94.2649C21.2561 94.4189 21.3676 94.5587 21.5191 94.5758C21.5305 94.5758 21.5419 94.5786 21.5505 94.5786C21.6906 94.5786 21.8135 94.4731 21.8306 94.3305L22.1051 91.9436C22.1222 91.7896 22.0136 91.6499 21.8592 91.6328Z" fill="#A28C41"/>
<path d="M25.4809 94.5786C25.6353 94.5615 25.7467 94.4218 25.7267 94.2678L25.4523 91.8809C25.4352 91.7269 25.2951 91.6157 25.1407 91.6356C24.9864 91.6527 24.8749 91.7925 24.8949 91.9465L25.1693 94.3334C25.1865 94.476 25.3065 94.5815 25.4495 94.5815C25.4609 94.5786 25.4695 94.5786 25.4809 94.5786Z" fill="#A28C41"/>
<path d="M29.1771 93.7174C29.2086 93.7174 29.24 93.7117 29.2715 93.7003C29.4172 93.649 29.4944 93.4864 29.4401 93.341L28.6283 91.0796C28.5768 90.9341 28.4139 90.8571 28.2681 90.9113C28.1223 90.9626 28.0451 91.1252 28.0995 91.2706L28.9113 93.5321C28.9542 93.6462 29.0628 93.7174 29.1771 93.7174Z" fill="#A28C41"/>
<path d="M32.676 91.9779C32.7303 91.9779 32.7817 91.9636 32.8303 91.9322C32.959 91.8467 32.9961 91.6727 32.9104 91.5444L31.5869 89.5368C31.5011 89.4084 31.3268 89.3713 31.1981 89.4569C31.0695 89.5425 31.0323 89.7164 31.1181 89.8447L32.4416 91.8524C32.4959 91.9322 32.5845 91.9779 32.676 91.9779Z" fill="#A28C41"/>
<path d="M35.4201 89.4341C35.4744 89.4854 35.543 89.5082 35.6116 89.5082C35.6859 89.5082 35.7631 89.4797 35.8174 89.4198C35.9232 89.3058 35.9174 89.1289 35.8031 89.0234L34.0422 87.3837C33.9279 87.2782 33.7507 87.2839 33.6449 87.3979C33.5391 87.512 33.5449 87.6888 33.6592 87.7943L35.4201 89.4341Z" fill="#A28C41"/>
<path d="M35.5488 84.7714C35.4745 84.9083 35.5259 85.0766 35.6603 85.1507L37.7756 86.3C37.8185 86.3228 37.8642 86.3342 37.9099 86.3342C38.01 86.3342 38.1072 86.28 38.1558 86.1888C38.2301 86.0519 38.1786 85.8836 38.0443 85.8095L35.929 84.6602C35.7946 84.5861 35.6231 84.6374 35.5488 84.7714Z" fill="#A28C41"/>
<path d="M39.2421 82.741C39.2649 82.7467 39.2878 82.7495 39.3107 82.7495C39.4364 82.7495 39.5508 82.664 39.5822 82.5357C39.6194 82.3845 39.5279 82.2334 39.3764 82.1963L37.0381 81.6174C36.8866 81.5803 36.7351 81.6716 36.698 81.8227C36.6608 81.9739 36.7523 82.125 36.9038 82.1621L39.2421 82.741Z" fill="#A28C41"/>
<path d="M4.52511 5.37271C4.39933 5.44971 4.36217 5.61226 4.43649 5.73773L12.2689 18.5165C12.3175 18.5992 12.4061 18.642 12.4947 18.642C12.5433 18.642 12.589 18.6305 12.6319 18.602C12.7577 18.525 12.7948 18.3625 12.7205 18.237L4.88814 5.45826C4.81382 5.33564 4.65088 5.29856 4.52511 5.37271Z" fill="#A28C41"/>
<path d="M36.8779 19.9195C36.9208 19.9452 36.9694 19.9595 37.0152 19.9595C37.1038 19.9595 37.1924 19.9138 37.241 19.834L45.8394 5.81188C45.9166 5.6864 45.8766 5.52385 45.7508 5.44685C45.625 5.36986 45.4621 5.40978 45.3849 5.53526L36.7893 19.5545C36.7121 19.68 36.7522 19.8425 36.8779 19.9195Z" fill="#A28C41"/>
<path d="M9.96198 3.92402C9.82762 3.98105 9.76474 4.13505 9.82191 4.27193L15.1988 16.9765C15.2417 17.0763 15.3389 17.1391 15.4446 17.1391C15.4789 17.1391 15.5132 17.1334 15.5476 17.1191C15.6819 17.0621 15.7448 16.9081 15.6876 16.7712L10.3079 4.0666C10.2507 3.92972 10.0963 3.86698 9.96198 3.92402Z" fill="#A28C41"/>
<path d="M15.5417 3.90404C15.3988 3.94111 15.3131 4.0837 15.3502 4.22629L18.2974 15.8957C18.3288 16.0155 18.4346 16.0953 18.5546 16.0953C18.5775 16.0953 18.5975 16.0925 18.6204 16.0868C18.7633 16.0497 18.8491 15.9071 18.8119 15.7645L15.8648 4.09796C15.8305 3.95537 15.6847 3.86982 15.5417 3.90404Z" fill="#A28C41"/>
<path d="M20.527 1.65974C20.3812 1.674 20.2726 1.80233 20.2869 1.94777L21.4989 15.3111C21.5104 15.448 21.6276 15.5507 21.7619 15.5507C21.7705 15.5507 21.7791 15.5507 21.7848 15.5507C21.9306 15.5364 22.0392 15.4081 22.0249 15.2626L20.8157 1.89929C20.8014 1.75385 20.6728 1.64548 20.527 1.65974Z" fill="#A28C41"/>
<path d="M24.6893 15.4879C24.695 15.4879 24.6978 15.4879 24.7036 15.4879C24.8436 15.4879 24.9608 15.3767 24.9694 15.237L25.7212 0.276617C25.7269 0.131177 25.6126 0.00855154 25.4668 -3.74191e-06C25.321 -0.00570726 25.1952 0.105511 25.1895 0.250951L24.4377 15.2113C24.432 15.3567 24.5435 15.4822 24.6893 15.4879Z" fill="#A28C41"/>
<path d="M27.8792 15.9014C27.8964 15.9043 27.9164 15.9071 27.9335 15.9071C28.0565 15.9071 28.1679 15.8216 28.1937 15.6961L31.0265 2.1987C31.0579 2.05611 30.9636 1.91638 30.8207 1.88501C30.6777 1.85364 30.5377 1.94775 30.5062 2.09034L27.6734 15.5877C27.642 15.7303 27.7335 15.8729 27.8792 15.9014Z" fill="#A28C41"/>
<path d="M30.9894 16.8054C31.0209 16.8168 31.0523 16.8225 31.0838 16.8225C31.1924 16.8225 31.2924 16.7569 31.3325 16.6514L35.5774 5.38698C35.6288 5.2501 35.5602 5.09895 35.423 5.04762C35.2858 4.99629 35.1343 5.06473 35.0829 5.20162L30.8379 16.4661C30.7808 16.6001 30.8522 16.7541 30.9894 16.8054Z" fill="#A28C41"/>
<path d="M33.9508 18.1771C33.9909 18.1999 34.0366 18.2113 34.0795 18.2113C34.1738 18.2113 34.2624 18.1629 34.311 18.0744L40.8714 6.36227C40.9428 6.23394 40.8971 6.07424 40.7684 6.00294C40.6398 5.93165 40.4797 5.97728 40.4083 6.10561L33.8479 17.8178C33.7765 17.9433 33.8222 18.1058 33.9508 18.1771Z" fill="#A28C41"/>
</g>
<defs>
<clipPath id="clip0_448_11415">
<rect width="47" height="109" fill="white"/>
</clipPath>
</defs>
</svg>
